<?xml version="1.0" encoding="iso-8859-1"?>
<!-- Generator: Adobe Illustrator 21.1.0, SVG Export Plug-In . SVG Version: 6.00 Build 0)  -->
<svg version="1.1" xmlns="http://www.w3.org/2000/svg" xmlns:xlink="http://www.w3.org/1999/xlink" x="0px" y="0px"
	 viewBox="0 0 18 14" style="enable-background:new 0 0 18 14;" xml:space="preserve" fill="#FFFF">
<g id="Email">
	<path d="M18,4.514v7.895c0,0.437-0.157,0.812-0.472,1.124C17.213,13.844,16.835,14,16.393,14H1.607
		c-0.442,0-0.82-0.156-1.135-0.467C0.157,13.221,0,12.847,0,12.409V4.514c0.295,0.325,0.633,0.613,1.015,0.865
		C3.439,7.01,5.103,8.153,6.007,8.81c0.382,0.278,0.691,0.496,0.929,0.651C7.174,9.617,7.49,9.776,7.885,9.938
		c0.395,0.162,0.763,0.244,1.105,0.244H9h0.01c0.342,0,0.71-0.081,1.105-0.244c0.395-0.162,0.711-0.321,0.949-0.477
		c0.238-0.156,0.547-0.373,0.929-0.651c1.138-0.815,2.806-1.959,5.002-3.43C17.377,5.121,17.712,4.832,18,4.514z M18,1.591
		c0,0.524-0.164,1.024-0.492,1.501c-0.328,0.477-0.737,0.885-1.225,1.223c-2.518,1.73-4.085,2.807-4.701,3.232
		c-0.067,0.046-0.209,0.147-0.427,0.303c-0.218,0.156-0.398,0.282-0.542,0.378c-0.144,0.096-0.318,0.204-0.522,0.323
		C9.886,8.67,9.693,8.76,9.512,8.82C9.331,8.879,9.164,8.909,9.01,8.909H9H8.99c-0.154,0-0.321-0.03-0.502-0.089
		C8.307,8.76,8.114,8.67,7.91,8.551C7.706,8.432,7.532,8.324,7.388,8.228C7.244,8.132,7.063,8.006,6.845,7.85
		c-0.218-0.156-0.36-0.257-0.427-0.303C5.809,7.123,4.932,6.518,3.787,5.732C2.642,4.947,1.955,4.474,1.728,4.315
		C1.312,4.037,0.921,3.654,0.552,3.167S0,2.227,0,1.81c0-0.517,0.139-0.948,0.417-1.293C0.695,0.172,1.092,0,1.607,0h14.786
		c0.435,0,0.812,0.156,1.13,0.467C17.841,0.779,18,1.153,18,1.591z"/>
</g>
<g id="Layer_1">
</g>
</svg>
