<?xml version="1.0" encoding="UTF-8" standalone="no"?>
<!DOCTYPE svg PUBLIC "-//W3C//DTD SVG 1.1//EN" "http://www.w3.org/Graphics/SVG/1.1/DTD/svg11.dtd">
<svg width="100%" height="100%" viewBox="0 0 390 390" version="1.1" xmlns="http://www.w3.org/2000/svg" xmlns:xlink="http://www.w3.org/1999/xlink" xml:space="preserve" xmlns:serif="http://www.serif.com/" style="fill-rule:evenodd;clip-rule:evenodd;stroke-linejoin:round;stroke-miterlimit:1.5;">
    <g id="Layer1">
    </g>
    <g transform="matrix(0.739573,0,0,0.807407,2.68788,-21.6663)">
        <rect x="47" y="101" width="313" height="270" style="fill:white;fill-opacity:0;stroke:black;stroke-width:13.45px;"/>
    </g>
    <g transform="matrix(0.739573,0,0,0.807407,4.06948,-9.93351)">
        <path d="M47,126C359.836,124.481 360,124 360,124" style="fill:none;stroke:black;stroke-width:13.45px;"/>
    </g>
    <g transform="matrix(0.739573,0,0,0.807407,29.8361,-2.66685)">
        <path d="M268,144L297,144" style="fill:none;stroke:black;stroke-width:4.57px;stroke-linecap:square;stroke-linejoin:miter;stroke-miterlimit:34;"/>
    </g>
    <g transform="matrix(0.739573,0,0,0.807407,29.8361,2.985)">
        <path d="M268,144L297,144" style="fill:none;stroke:black;stroke-width:4.57px;stroke-linecap:square;stroke-linejoin:miter;stroke-miterlimit:34;"/>
    </g>
    <g transform="matrix(0.739573,0,0,0.807407,29.8361,8.63686)">
        <path d="M268,144L297,144" style="fill:none;stroke:black;stroke-width:4.57px;stroke-linecap:square;stroke-linejoin:miter;stroke-miterlimit:34;"/>
    </g>
    <g transform="matrix(0.739573,0,0,0.807407,4.06948,-9.93351)">
        <path d="M79,224.229L263,224.229" style="fill:none;stroke:black;stroke-width:4.57px;stroke-linecap:square;stroke-linejoin:miter;stroke-miterlimit:34;"/>
    </g>
    <g transform="matrix(0.739573,0,0,0.807407,4.06948,-9.93351)">
        <path d="M79,236.794L234,236.794" style="fill:none;stroke:black;stroke-width:4.57px;stroke-linecap:square;stroke-linejoin:miter;stroke-miterlimit:34;"/>
    </g>
    <g transform="matrix(0.739573,0,0,0.807407,4.06948,-9.93351)">
        <path d="M79,253.191L222,253.191" style="fill:none;stroke:black;stroke-width:4.57px;stroke-linecap:square;stroke-linejoin:miter;stroke-miterlimit:34;"/>
    </g>
    <g transform="matrix(0.739573,0,0,0.807407,4.06948,-9.93351)">
        <path d="M79,288.068L263,288.068" style="fill:none;stroke:black;stroke-width:4.57px;stroke-linecap:square;stroke-linejoin:miter;stroke-miterlimit:34;"/>
    </g>
    <g transform="matrix(0.739573,0,0,0.807407,4.06948,-9.93351)">
        <path d="M79,307.146L263,307.146" style="fill:none;stroke:black;stroke-width:4.57px;stroke-linecap:square;stroke-linejoin:miter;stroke-miterlimit:34;"/>
    </g>
    <g transform="matrix(0.739573,0,0,0.807407,2.68788,-110.859)">
        <path d="M79,330.748L203.5,330.748" style="fill:none;stroke:black;stroke-width:4.57px;stroke-linecap:square;stroke-linejoin:miter;stroke-miterlimit:34;"/>
    </g>
    <g transform="matrix(0.47544,0,0,0.519048,19.0194,12.1548)">
        <circle cx="72" cy="120" r="7" style="fill:white;fill-opacity:0;stroke:black;stroke-width:7.12px;stroke-linecap:square;stroke-linejoin:miter;stroke-miterlimit:34;"/>
    </g>
    <g transform="matrix(0.47544,0,0,0.519048,36.497,12.1548)">
        <circle cx="72" cy="120" r="7" style="fill:white;fill-opacity:0;stroke:black;stroke-width:7.12px;stroke-linecap:square;stroke-linejoin:miter;stroke-miterlimit:34;"/>
    </g>
    <g transform="matrix(0.43715,-0.317976,0.31097,0.509538,139.137,115.66)">
        <path d="M81,155L91,175L71,175L81,155Z" style="stroke:black;stroke-width:6.49px;stroke-linecap:round;stroke-linejoin:miter;stroke-miterlimit:34;"/>
    </g>
    <g transform="matrix(0.894915,0.446236,-0.446236,0.894915,161.755,-76.4856)">
        <text x="295px" y="345.504px" style="font-family:'ArialMT', 'Arial', sans-serif;font-size:150px;">+</text>
    </g>
    <g transform="matrix(1,0,0,1,6.25496,-122.811)">
        <text x="295px" y="345.504px" style="font-family:'ArialMT', 'Arial', sans-serif;font-size:150px;">+</text>
    </g>
    <g transform="matrix(0.377102,0.926172,-0.926172,0.377102,316.404,-85.9932)">
        <text x="295px" y="345.504px" style="font-family:'ArialMT', 'Arial', sans-serif;font-size:150px;">+</text>
    </g>
</svg>
