<?xml version="1.0" encoding="UTF-8" standalone="no"?>
<!DOCTYPE svg PUBLIC "-//W3C//DTD SVG 1.1//EN" "http://www.w3.org/Graphics/SVG/1.1/DTD/svg11.dtd">
<svg width="100%" height="100%" viewBox="0 0 2048 1418" version="1.1" xmlns="http://www.w3.org/2000/svg" xmlns:xlink="http://www.w3.org/1999/xlink" xml:space="preserve" xmlns:serif="http://www.serif.com/" style="fill-rule:evenodd;clip-rule:evenodd;stroke-miterlimit:10;">
    <g transform="matrix(1.33333,0,0,1.33333,0,0)">
        <g transform="matrix(1,0,0,1,-485,-1181.29)">
            <g transform="matrix(0.445496,0,0,0.445496,444.048,1132.18)">
                <g transform="matrix(1.13919,0,0,1.13919,729.663,1062.08)">
                    <g transform="matrix(1,0,0,1,-512,-700)">
                        <clipPath id="_clip1">
                            <rect x="0" y="0" width="1024" height="1400"/>
                        </clipPath>
                        <g clip-path="url(#_clip1)">
                            <g id="Layer_2">
                                <g>
                                    <g>
                                        <g transform="matrix(0.99836,0,0,0.99836,0.847524,0.817946)">
                                            <path d="M1006.2,506.6C1006.1,315.7 787.1,17 516.8,17C246.5,17 27.6,310.8 27.5,506.7C27.4,702.6 268.1,998.51 314.5,997.8C377.212,996.84 774.653,998.123 717.2,997.8C767.673,997.44 1006.3,697.6 1006.2,506.6Z" style="fill:none;fill-rule:nonzero;stroke:black;stroke-width:40px;"/>
                                        </g>
                                        <path d="M738.1,1060L293.5,1060C286.711,1060 280.793,1034.89 278.157,1021.74C277.222,1017.07 276.7,1013.9 276.7,1013.9C276.7,1004.7 284.3,997.1 293.5,997.1L738.1,997.1C747.3,997.1 754.9,1004.7 754.9,1013.9C754.9,1013.9 747.3,1060 738.1,1060Z" style="fill:none;stroke:black;stroke-width:40px;"/>
                                        <path d="M725.9,1121.2L305.7,1121.2C297,1121.2 297,1061.7 305.7,1061.7L725.9,1061.7C734.6,1061.8 734.6,1121.2 725.9,1121.2Z" style="fill:none;fill-rule:nonzero;stroke:black;stroke-width:40px;"/>
                                        <path d="M714.5,1187.9L325.4,1187.9C317,1187.9 310.1,1141.2 310.1,1141.2C310.1,1132.3 317,1125 325.4,1125L714.5,1125C722.9,1125 729.8,1132.3 729.8,1141.2C729.7,1141.2 722.9,1187.9 714.5,1187.9Z" style="fill:none;fill-rule:nonzero;stroke:black;stroke-width:40px;"/>
                                        <path d="M701.8,1250.9L332,1250.9C323.6,1250.9 316.6,1203.3 316.6,1203.3C316.6,1194.9 323.5,1187.9 332,1187.9L701.8,1187.9C710.2,1187.9 717.2,1194.8 717.2,1203.3C717.1,1203.4 710.2,1250.9 701.8,1250.9Z" style="fill:none;fill-rule:nonzero;stroke:black;stroke-width:40px;"/>
                                        <path d="M678.5,1308L355.2,1308C351.626,1308 348.379,1297.95 345.977,1287.55C343.404,1276.42 341.8,1264.9 341.8,1264.9C341.8,1257.3 347.8,1251 355.2,1251L678.6,1251C686,1251 692,1257.3 692,1264.9C692,1264.9 685.9,1308 678.5,1308Z" style="fill:none;fill-rule:nonzero;stroke:black;stroke-width:40px;"/>
                                        <g transform="matrix(1,0,0,1,1.30819,10.2389)">
                                            <path d="M621.4,1349.5L528.4,1349.5L411.3,1349.5C406.5,1349.5 402.6,1322.5 402.6,1322.5C402.6,1319.92 359.705,1321.82 359.165,1310.13C358.743,1300.99 355.387,1306.99 411.3,1313.8L621.4,1313.8C681.547,1306.18 668.005,1302.02 668.239,1309.69C668.644,1322.98 630.1,1320.07 630.1,1322.5C630.1,1322.5 626.2,1349.5 621.4,1349.5Z" style="fill-rule:nonzero;stroke:black;stroke-width:20px;"/>
                                        </g>
                                        <g transform="matrix(1,0,0,1,2.47474,19.5919)">
                                            <path d="M619,1349.5C619,1355.5 572.8,1361 515.9,1361C507.272,1361 498.89,1360.87 490.877,1360.64C446.051,1359.32 412.8,1354.59 412.8,1349.5C412.8,1343.5 619,1343.5 619,1349.5Z" style="fill-rule:nonzero;stroke:black;stroke-width:7px;"/>
                                        </g>
                                    </g>
                                </g>
                            </g>
                        </g>
                    </g>
                </g>
                <g transform="matrix(-3.39425,-4.74331,4.74331,-3.39425,742.403,875.228)">
                    <g transform="matrix(1,0,0,1,-75,-75)">
                        <path d="M139.9,120.7C139.9,120.7 139.6,121.1 138.9,121.8C138.2,122.6 137.3,123.7 135.9,125.1C133.1,127.9 128.8,131.8 122.5,135.8C116.2,139.7 107.7,143.6 97.3,145.6C86.9,147.6 74.6,147.8 61.7,144.2C48.9,140.8 35.6,133.4 25,122.2C23.5,120.7 22.3,119.1 21,117.6C20.4,116.8 19.8,116 19.2,115.2C18.6,114.4 18.1,113.5 17.5,112.7C15.3,109.2 13.4,105.5 11.9,101.6C8.7,93.6 7.1,85 7.1,76.2C7.1,67.4 8.9,58.4 12.5,50C14.3,45.8 16.5,41.7 19.1,37.9C19.7,36.9 20.4,36 21.1,35.1C21.8,34.2 22.5,33.3 23.3,32.4C24,31.5 24.8,30.7 25.6,29.8L26.2,29.2L26.5,28.9C26.3,29.1 27,28.4 27,28.4L27.1,28.3L28.2,27.3L30.5,25.2C31.5,24.4 32.5,23.6 33.6,22.8C34.6,22 35.7,21.2 36.7,20.6L39.8,18.7C40.8,18.1 42,17.6 43.1,17.1C44.2,16.6 45.3,16 46.4,15.6L49.9,14.4L50.8,14.1L51.7,13.9L53.5,13.5L55.3,13.1L56.2,12.9L57.1,12.8L60.7,12.3L61.6,12.2L62.5,12.1L64.3,12L66.1,11.9L67.9,11.9L71.6,12.1L73.4,12.3L77,12.9L77.9,13L78.8,13.2L82.4,14.1L83.3,14.3L84.2,14.6L87.6,15.8L88.5,16.1L89.3,16.5C91.5,17.5 93.8,18.5 95.9,19.9C96.9,20.5 98,21.1 99,21.8L102,24C103,24.7 103.9,25.5 104.8,26.4L106.9,28.2L107.4,28.7C107.6,28.9 107.2,28.5 107.9,29.2L110,31.5L110.5,32.1C110.7,32.3 110.9,32.6 111.1,32.9L113.5,36.3C113.9,36.9 114.2,37.4 114.5,37.9L115.5,39.5C115.8,40 116.1,40.6 116.4,41.2L118,44.7L119.2,48.3C119.4,48.9 119.6,49.5 119.7,50.1L120.1,51.9C120.2,52.5 120.4,53.1 120.5,53.7L120.8,55.6C121.5,60.5 121.5,65.6 120.6,70.4C119.7,75.3 118.1,80 115.8,84.3C113.5,88.6 110.5,92.5 107.1,95.8C106.4,96.4 106.8,96 106.7,96.2L106.6,96.3L106.3,96.5L105.7,97L104.6,98C104.5,98.1 104.1,98.4 103.9,98.6L103.1,99.2L101.4,100.4C100.8,100.8 100.3,101.1 99.8,101.4L98.2,102.3C97.1,102.9 96,103.3 94.9,103.9C85.8,107.6 75.7,107.7 67,104.4C62.6,102.8 58.7,100.4 55.2,97.5C54.4,96.7 53.6,96 52.8,95.2L52.6,95.1C52.6,95.1 52.1,94.5 52.2,94.7L52,94.2L51.6,93.7L50.7,92.7C50,91.7 49.2,90.6 48.5,89.6C47.9,88.6 47.3,87.6 46.9,86.6C43,78.3 43,68.9 46.3,61.2C47.9,57.4 50.3,53.9 53.2,51.2L53.5,50.9C53.6,50.8 53.4,51 53.8,50.6L53.9,50.5L54.4,50.1L55.3,49.3C56.2,48.7 57.2,47.9 58,47.4C58.9,46.9 59.8,46.4 60.7,46L62.1,45.4L63.5,45C65.4,44.4 67.3,44.1 69.2,44C71.1,43.9 73,44 74.8,44.3C78.4,44.9 81.8,46.3 84.7,48.4C85.4,48.9 86.1,49.5 86.7,50C87.3,50.6 87.9,51.2 88.5,51.8C88.5,51.8 88.8,52.2 88.7,52.1L89,52.4L89.3,52.8C89.5,53.1 89.7,53.3 90,53.7L90.8,54.9C91.1,55.3 91.2,55.6 91.4,56C93,59 93.7,62.2 93.7,65.3C93.7,71.5 90.5,76.9 86.6,79.9C82.2,83.2 77.1,83.6 73.1,82.3C71.1,81.7 69.4,80.7 68.1,79.5C66.8,78.3 65.7,77 65,75.5C63.7,72.6 63.8,69.9 64.4,67.9C65,65.9 65.9,64.7 66.6,63.9C66.9,63.5 67.2,63.3 67.4,63.1C67.6,62.9 67.7,62.8 67.7,62.8C67.7,62.8 67.6,62.9 67.5,63.1C67.3,63.3 67.1,63.6 66.9,64C66.4,64.8 65.7,66.2 65.5,68C65.3,69.8 65.6,72.2 67,74.3C67.7,75.3 68.7,76.3 69.9,77.1C71.1,77.9 72.5,78.5 74.1,78.7C75.6,78.9 77.3,78.9 78.9,78.4C79.7,78.1 80.5,77.9 81.2,77.4C81.6,77.2 81.9,76.9 82.3,76.7C82.5,76.6 82.6,76.4 82.7,76.3C82.9,76.2 83,76.1 83.2,75.9C84.5,74.5 85.5,73 86.2,71.2C86.9,69.4 87.1,67.4 86.9,65.5C86.7,63.5 86,61.6 84.8,59.9C84.7,59.7 84.5,59.5 84.4,59.3C84.3,59.1 84.1,59 84,58.8C83.9,58.7 83.9,58.7 83.8,58.5L83.4,58.1L83,57.7L82.8,57.5L82.7,57.4C82.5,57.2 82.8,57.5 82.8,57.5C82.4,57.2 81.9,56.8 81.5,56.5C81,56.2 80.6,55.9 80.1,55.6C76.2,53.5 71.3,53 67,54.8L66,55.2L65.2,55.6C64.7,55.8 64.2,56.2 63.7,56.5C63.2,56.8 63,57.1 62.6,57.4L61.7,58.2L61.3,58.6L61.2,58.7C61.6,58.3 61.3,58.7 61.3,58.6L61.2,58.8C59.5,60.7 58.3,62.9 57.5,65.3C55.9,70.1 56.3,75.7 58.9,80.2C59.2,80.8 59.6,81.3 59.9,81.8C60.3,82.3 60.6,82.6 60.9,83.1L61.8,84.1L62.5,84.8C62.8,85.1 62.3,84.6 62.4,84.7L62.5,84.8C63,85.3 63.6,85.7 64.1,86.2C66.4,87.9 68.9,89.2 71.6,90C74.3,90.8 77.2,91.2 80.1,91C83,90.8 85.8,90.1 88.4,88.9C89,88.5 89.7,88.3 90.3,87.9L91.2,87.3C91.5,87.1 91.9,86.9 92.1,86.7C92.3,86.5 92.6,86.3 92.8,86.1L93.2,85.8C93.3,85.7 93.4,85.7 93.6,85.5L95.5,83.8C97.6,81.5 99.4,78.9 100.9,76.2C102.3,73.4 103.2,70.3 103.7,67.2C104.2,64.1 104.2,60.9 103.7,57.8L103.5,56.6C103.4,56.2 103.3,55.8 103.2,55.4L102.9,54.2C102.8,53.8 102.7,53.4 102.6,53.1L101.8,50.9L100.8,48.8C100.6,48.4 100.4,48.1 100.2,47.8L99.6,46.8C99.4,46.5 99.2,46.1 99,45.8C98.8,45.5 98.6,45.3 98.4,45L97.8,44.2C97.7,44.1 97.6,43.9 97.5,43.8L97,43.2L94.8,41C95.4,41.6 94.9,41.1 95,41.2L94.9,41.1L94.7,40.9L94.2,40.5L93.3,39.7C92.7,39.1 92.1,38.5 91.4,38.1L89.4,36.6C88.7,36.1 88,35.7 87.2,35.3C85.8,34.4 84.2,33.7 82.7,33L82.1,32.7L81.5,32.5L80.1,32L78.9,31.6L78.3,31.4L77.7,31.3L75.2,30.7L74.6,30.5L74,30.4L72.7,30.2L71.5,30L70.9,29.9L70.3,29.9L67.8,29.8L67.2,29.8L66.6,29.8L65.3,29.9L64,30L63.4,30L62.7,30L60.2,30.4L59.6,30.5L59,30.7L57.8,31C54.5,31.7 51.4,33 48.4,34.5C47,35.4 45.4,36.1 44.3,37L42.4,38.3L40.1,40.3L39,41.3L38.9,41.4C38.8,41.5 39.4,40.9 39.1,41.2L38.9,41.4L38.4,41.9C37.8,42.5 37.2,43.1 36.6,43.8C36,44.5 35.4,45.1 34.9,45.8C34.4,46.5 33.8,47.2 33.3,47.9C31.2,50.7 29.5,53.7 28,56.8C25.1,63.1 23.5,69.8 23.2,76.6C22.9,83.4 23.9,90.1 25.9,96.3C26.9,99.4 28.3,102.4 29.8,105.2C30.2,105.9 30.6,106.6 31,107.3C31.4,108 31.9,108.6 32.3,109.3C33.2,110.6 34.2,111.9 35.1,113.1C35.3,113.4 35.5,113.7 35.8,114L37.6,116L37.7,116.1C37.5,115.9 37.7,116.1 37.7,116.1L38.3,116.7C38.9,117.3 39.4,117.9 40,118.4C40.6,118.9 41.2,119.5 41.7,120C42.8,121.1 44.1,122.1 45.3,123.1C46.6,124 47.7,125 49,125.9C49.6,126.3 50.3,126.8 50.9,127.2C51.6,127.6 52.2,128 52.9,128.4C54.2,129.2 55.5,129.9 56.8,130.6C59.5,131.9 62.2,133.2 64.9,134.2C67.6,135.3 70.3,136 73.1,136.7C75.8,137.3 78.5,137.9 81.2,138.2C86.5,138.9 91.7,138.9 96.5,138.6C106.2,137.9 114.4,135.3 120.9,132.5C127.4,129.6 132.2,126.5 135.3,124.2C136.9,123.1 138,122.1 138.8,121.5C139.5,121 139.9,120.7 139.9,120.7Z" style="fill-rule:nonzero;"/>
                    </g>
                </g>
            </g>
            <g transform="matrix(1,0,0,1,-300.389,485.799)">
                <text x="1248.05px" y="1407.58px" style="font-family:'DINAlternate-Bold', 'DIN Alternate', sans-serif;font-weight:700;font-size:320.833px;">DEAS</text>
            </g>
            <g transform="matrix(1,0,0,1,-188.761,661.25)">
                <text x="1222.7px" y="986.922px" style="font-family:'DINAlternate-Bold', 'DIN Alternate', sans-serif;font-weight:700;font-size:266.667px;">MAKING</text>
            </g>
            <g transform="matrix(1,0,0,1,-129.007,231.714)">
                <text x="998.665px" y="1841.71px" style="font-family:'DINAlternate-Bold', 'DIN Alternate', sans-serif;font-weight:700;font-size:229.167px;">HAPPEN</text>
            </g>
        </g>
    </g>
</svg>
