<svg width="1878" height="3974" viewBox="0 0 1878 3974" fill="none" xmlns="http://www.w3.org/2000/svg">
<path d="M954.367 2036.26L962.865 1441.4L622.949 1158.14L192.389 1546.21L10.2759 2442.49L206.552 3191.97L543.635 3367.59L537.971 2886.05L469.987 2843.55L317.024 2483.81L501.145 1823.81" stroke="black" stroke-width="20" stroke-linecap="square" stroke-linejoin="bevel"/>
<path d="M422 2130.33L544.667 2277L432.667 2701L987.333 2306.33L1182 2922.33L192.667 3823.67" stroke="black" stroke-width="20" stroke-linecap="square" stroke-linejoin="bevel"/>
<path d="M355.333 3957L392.667 3650.33" stroke="black" stroke-width="20" stroke-linecap="square" stroke-linejoin="bevel"/>
<path d="M469.588 3962.12C484.974 3864.49 500.36 3766.85 515.745 3669.21" stroke="black" stroke-width="20" stroke-linecap="square" stroke-linejoin="bevel"/>
<path d="M589.815 3944.95L659.518 3526.38" stroke="black" stroke-width="20" stroke-linecap="square" stroke-linejoin="bevel"/>
<path d="M704.888 3946.67C733.186 3814.01 761.692 3684.72 789.779 3548.66" stroke="black" stroke-width="20" stroke-linecap="square" stroke-linejoin="bevel"/>
<path d="M822.108 3948.78L926.448 3492.53L1105.95 3888.96" stroke="black" stroke-width="20" stroke-linecap="square" stroke-linejoin="bevel"/>
<path d="M1148.34 3675.57L1228.99 3867.76" stroke="black" stroke-width="20" stroke-linecap="square" stroke-linejoin="bevel"/>
<path d="M1259.16 3636.61L1363.5 3858.73" stroke="black" stroke-width="20" stroke-linecap="square" stroke-linejoin="bevel"/>
<path d="M1382.36 3577.12L1485.64 3824.88" stroke="black" stroke-width="20" stroke-linecap="square" stroke-linejoin="bevel"/>
<path d="M1525.33 3519L1626.67 3775" stroke="black" stroke-width="20" stroke-linecap="square" stroke-linejoin="bevel"/>
<path d="M1618 3415.67L1732.67 3711.67" stroke="black" stroke-width="20" stroke-linecap="square" stroke-linejoin="bevel"/>
<path d="M1192.67 3570.33L1686 3367.67L1342 1855.67L1379.33 1834.33L1568.67 2039.67L1536.67 2469" stroke="black" stroke-width="20" stroke-linecap="square" stroke-linejoin="bevel"/>
<path d="M1798 2601C1793.88 2447.67 1841.31 2320.07 1860.56 2173.34C1882.83 2003.64 1855.47 1949.73 1736.67 1659.67C1663.47 1516.38 1687.15 1553.1 1666.05 1517.49C1645.74 1483.21 1666.01 1509.93 1571.14 1407.32C1204.54 1106.99 1331.27 1194.66 1204.67 1109" stroke="black" stroke-width="20" stroke-linecap="square" stroke-linejoin="bevel"/>
<path d="M1210 1213C1205.28 1284.57 1241.89 1366.81 1237.18 1438.38C1231.23 1528.59 1195.95 1600.13 1190 1690.33L1088.67 1469" stroke="black" stroke-width="20" stroke-linecap="square" stroke-linejoin="bevel"/>
<path d="M1020.67 519L1086.67 349L1146 489.667L1174 858.333L980.667 1159L812.667 1169.67L630.333 1035.33C642.212 980.56 623.333 773.223 623.333 649.667C684.002 607.064 744.671 564.46 805.34 521.857C944.671 424.016 1084 326.175 1223.33 228.333" stroke="black" stroke-width="20" stroke-linecap="square" stroke-linejoin="bevel"/>
<path d="M1078.67 335.667L1244 466.333C1220.78 635.207 1242.89 804.081 1219.67 972.955C1203.78 1088.53 1142.56 1204.1 1126.67 1319.67" stroke="black" stroke-width="20" stroke-linecap="square" stroke-linejoin="bevel"/>
<path d="M1249.33 861L1385.33 765L1457.33 154.333L1369.33 119.667L926.667 26.3333L777.333 287.667" stroke="black" stroke-width="20" stroke-linecap="square" stroke-linejoin="bevel"/>
<path d="M920.667 13L574 122.333L422 522.333L630 639.667" stroke="black" stroke-width="20" stroke-linecap="square" stroke-linejoin="bevel"/>
<path d="M494 573L622 925" stroke="black" stroke-width="20" stroke-linecap="square" stroke-linejoin="bevel"/>
</svg>
