<?xml version="1.0" standalone="no"?>
<!DOCTYPE svg PUBLIC "-//W3C//DTD SVG 20010904//EN" "http://www.w3.org/TR/2001/REC-SVG-20010904/DTD/svg10.dtd">
<!-- Created using Krita: https://krita.org -->
<svg xmlns="http://www.w3.org/2000/svg" 
    xmlns:xlink="http://www.w3.org/1999/xlink"
    xmlns:krita="http://krita.org/namespaces/svg/krita"
    xmlns:sodipodi="http://sodipodi.sourceforge.net/DTD/sodipodi-0.dtd"
    width="1908pt"
    height="4032pt"
    viewBox="0 0 1908 4032">
<defs/>
<path id="shape0" transform="translate(201.206943535047, 1092.8556410437)" fill="none" stroke="#000000" stroke-width="1" stroke-linecap="square" stroke-linejoin="bevel" d="M708.068 658.587L714.442 212.447L459.505 0L136.585 291.053L0 963.263L147.207 1525.37L400.019 1657.09L395.771 1295.93L344.783 1264.06L230.061 994.254L368.152 499.252" sodipodi:nodetypes="ccccccccccc"/><path id="shape1" transform="translate(337.999996853681, 1821.99998303967)" fill="none" stroke="#000000" stroke-width="1" stroke-linecap="square" stroke-linejoin="bevel" d="M172 0L264 110L180 428L596 132L742 594L0 1270" sodipodi:nodetypes="cccccc"/><path id="shape2" transform="translate(459.999995718027, 2961.99997242782)" fill="none" stroke="#000000" stroke-width="1" stroke-linecap="square" stroke-linejoin="bevel" d="M0 230L28 0" sodipodi:nodetypes="cc"/><path id="shape3" transform="matrix(0.999081511590052 -0.0428501248415692 0.0428501248415692 0.999081511590052 536.349538353221 2978.04278933781)" fill="none" stroke="#000000" stroke-width="1" stroke-linecap="square" stroke-linejoin="bevel" d="M0 218C14.6667 145.333 29.3333 72.6667 44 0" sodipodi:nodetypes="cc"/><path id="shape4" transform="matrix(0.998003442558901 -0.063159549084716 0.063159549084716 0.998003442558901 616.282140342213 2873.58318321268)" fill="none" stroke="#000000" stroke-width="1" stroke-linecap="square" stroke-linejoin="bevel" d="M0 310L72 0" sodipodi:nodetypes="cc"/><path id="shape5" transform="matrix(0.99808733588624 -0.0618196566110869 0.0618196566110869 0.99808733588624 703.99092225957 2890.81574051703)" fill="none" stroke="#000000" stroke-width="1" stroke-linecap="square" stroke-linejoin="bevel" d="M0 294C27.3333 196.01 54.6667 100.548 82 0" sodipodi:nodetypes="cc"/><path id="shape6" transform="matrix(0.996137327640597 -0.0878090227770027 0.0878090227770027 0.996137327640597 780.75305451351 2853.12841391698)" fill="none" stroke="#000000" stroke-width="1" stroke-linecap="square" stroke-linejoin="bevel" d="M0 334L108 0L216 308" sodipodi:nodetypes="ccc"/><path id="shape7" transform="matrix(0.993732426567399 -0.111784902327953 0.111784902327953 0.993732426567399 1054.75400858616 2980.9293083487)" fill="none" stroke="#000000" stroke-width="1" stroke-linecap="square" stroke-linejoin="bevel" d="M0 0L44 150" sodipodi:nodetypes="cc"/><path id="shape8" transform="matrix(0.994271189166961 -0.106886867259349 0.106886867259349 0.994271189166961 1137.87269574495 2951.70498532233)" fill="none" stroke="#000000" stroke-width="1" stroke-linecap="square" stroke-linejoin="bevel" d="M0 0L60 174" sodipodi:nodetypes="cc"/><path id="shape9" transform="matrix(0.999572551749005 -0.0292354885367633 0.0292354885367633 0.999572551749005 1230.26724022603 2907.09263090027)" fill="none" stroke="#000000" stroke-width="1" stroke-linecap="square" stroke-linejoin="bevel" d="M0 0L72 188" sodipodi:nodetypes="cc"/><path id="shape10" transform="translate(1337.49998781792, 2863.4999731361)" fill="none" stroke="#000000" stroke-width="1" stroke-linecap="square" stroke-linejoin="bevel" d="M0 0L76 192" sodipodi:nodetypes="cc"/><path id="shape11" transform="translate(1406.99998636631, 2785.99997430456)" fill="none" stroke="#000000" stroke-width="1" stroke-linecap="square" stroke-linejoin="bevel" d="M0 0L86 222" sodipodi:nodetypes="cc"/><path id="shape12" transform="translate(1087.9999898722, 1599.99998510618)" fill="none" stroke="#000000" stroke-width="1" stroke-linecap="square" stroke-linejoin="bevel" d="M0 1302L370 1150L112 16L140 0L282 154L258 476" sodipodi:nodetypes="cccccc"/><path id="shape13" transform="translate(1096.99999080171, 1055.99999058731)" fill="none" stroke="#000000" stroke-width="1" stroke-linecap="square" stroke-linejoin="bevel" d="M445 1119C441.909 1004 477.482 908.305 491.921 798.252C508.619 670.98 488.102 630.549 399 413C344.103 305.537 361.86 333.073 346.037 306.367C330.808 280.661 346.006 300.695 274.854 223.737C-0.0970742 -1.50847 94.9515 64.2458 0 0" sodipodi:nodetypes="cccccc"/><path id="shape14" transform="translate(1009.99999059828, 1133.99998926519)" fill="none" stroke="#000000" stroke-width="1" stroke-linecap="square" stroke-linejoin="bevel" d="M91 0C87.4607 53.6787 114.921 115.357 111.382 169.036C106.921 236.691 80.4607 290.345 76 358L0 192" sodipodi:nodetypes="cccc"/><path id="shape15" transform="translate(660.999993697979, 395.499996169423)" fill="none" stroke="#000000" stroke-width="1" stroke-linecap="square" stroke-linejoin="bevel" d="M298 218L347.5 90.5L392 196L413 472.5L268 698L142 706L5.25 605.25C14.1588 564.17 0 408.667 0 316C45.5017 284.048 91.0033 252.095 136.505 220.143C241.003 146.762 345.502 73.3811 450 0" sodipodi:nodetypes="cccccccccc"/><path id="shape16" transform="translate(1002.4999907575, 475.999995569089)" fill="none" stroke="#000000" stroke-width="1" stroke-linecap="square" stroke-linejoin="bevel" d="M0 0L124 98C106.585 224.655 123.17 351.311 105.755 477.966C93.8364 564.644 47.9182 651.322 36 738" sodipodi:nodetypes="cccc"/><path id="shape17" transform="translate(776.499992861251, 243.999997728693)" fill="none" stroke="#000000" stroke-width="1" stroke-linecap="square" stroke-linejoin="bevel" d="M354 626L456 554L510 96L444 70L112 0L0 196" sodipodi:nodetypes="cccccc"/><path id="shape18" transform="translate(509.999995252596, 233.999997728693)" fill="none" stroke="#000000" stroke-width="1" stroke-linecap="square" stroke-linejoin="bevel" d="M374 0L114 82L0 382L156 470" sodipodi:nodetypes="cccc"/><path id="shape19" transform="translate(563.999994749929, 653.999993912152)" fill="none" stroke="#000000" stroke-width="1" stroke-linecap="square" stroke-linejoin="bevel" d="M0 0L96 264" sodipodi:nodetypes="cc"/>
</svg>
