<?xml version="1.0" encoding="utf-8"?>
<!-- Generator: Adobe Illustrator 18.0.0, SVG Export Plug-In . SVG Version: 6.00 Build 0)  -->
<!DOCTYPE svg PUBLIC "-//W3C//DTD SVG 1.1//EN" "http://www.w3.org/Graphics/SVG/1.1/DTD/svg11.dtd">
<svg version="1.1" id="Layer_1" xmlns="http://www.w3.org/2000/svg" xmlns:xlink="http://www.w3.org/1999/xlink" x="0px" y="0px"
	 viewBox="0 0 150 150" enable-background="new 0 0 150 150" xml:space="preserve">
<g>
	<path fill="#DBAF40" d="M139.9,120.7c0,0-0.3,0.4-1,1.1c-0.7,0.8-1.6,1.9-3,3.3c-2.8,2.8-7.1,6.7-13.4,10.7
		c-6.3,3.9-14.8,7.8-25.2,9.8c-10.4,2-22.7,2.2-35.6-1.4c-12.8-3.4-26.1-10.8-36.7-22c-1.5-1.5-2.7-3.1-4-4.6
		c-0.6-0.8-1.2-1.6-1.8-2.4c-0.6-0.8-1.1-1.7-1.7-2.5c-2.2-3.5-4.1-7.2-5.6-11.1C8.7,93.6,7.1,85,7.1,76.2c0-8.8,1.8-17.8,5.4-26.2
		c1.8-4.2,4-8.3,6.6-12.1c0.6-1,1.3-1.9,2-2.8c0.7-0.9,1.4-1.8,2.2-2.7c0.7-0.9,1.5-1.7,2.3-2.6l0.6-0.6l0.3-0.3
		c-0.2,0.2,0.5-0.5,0.5-0.5l0.1-0.1l1.1-1l2.3-2.1c1-0.8,2-1.6,3.1-2.4c1-0.8,2.1-1.6,3.1-2.2l3.1-1.9c1-0.6,2.2-1.1,3.3-1.6
		c1.1-0.5,2.2-1.1,3.3-1.5l3.5-1.2l0.9-0.3l0.9-0.2l1.8-0.4l1.8-0.4l0.9-0.2l0.9-0.1l3.6-0.5l0.9-0.1l0.9-0.1l1.8-0.1l1.8-0.1l0.9,0
		l0.9,0l3.7,0.2l0.9,0.1l0.9,0.1l1.8,0.3l1.8,0.3l0.9,0.1l0.9,0.2l3.6,0.9l0.9,0.2l0.9,0.3l1.7,0.6l1.7,0.6l0.9,0.3l0.8,0.4
		c2.2,1,4.5,2,6.6,3.4c1,0.6,2.1,1.2,3.1,1.9l3,2.2c1,0.7,1.9,1.5,2.8,2.4l1.4,1.2l0.7,0.6l0.3,0.3l0.2,0.2c0.2,0.2-0.2-0.2,0.5,0.5
		l2.1,2.3l0.5,0.6c0.2,0.2,0.4,0.5,0.6,0.8l1.2,1.7l1.2,1.7c0.4,0.6,0.7,1.1,1,1.6l1,1.6c0.3,0.5,0.6,1.1,0.9,1.7l1.6,3.5l1.2,3.6
		c0.2,0.6,0.4,1.2,0.5,1.8l0.4,1.8c0.1,0.6,0.3,1.2,0.4,1.8l0.3,1.9c0.7,4.9,0.7,10-0.2,14.8c-0.9,4.9-2.5,9.6-4.8,13.9
		c-2.3,4.3-5.3,8.2-8.7,11.5c-0.7,0.6-0.3,0.2-0.4,0.4l-0.1,0.1l-0.3,0.2l-0.6,0.5l-1.1,1c-0.1,0.1-0.5,0.4-0.7,0.6l-0.8,0.6
		l-1.7,1.2c-0.6,0.4-1.1,0.7-1.6,1l-1.6,0.9c-1.1,0.6-2.2,1-3.3,1.6c-9.1,3.7-19.2,3.8-27.9,0.5c-4.4-1.6-8.3-4-11.8-6.9
		c-0.8-0.8-1.6-1.5-2.4-2.3l-0.2-0.1c0,0-0.5-0.6-0.4-0.4L52,94.2l-0.4-0.5l-0.9-1c-0.7-1-1.5-2.1-2.2-3.1c-0.6-1-1.2-2-1.6-3
		c-3.9-8.3-3.9-17.7-0.6-25.4c1.6-3.8,4-7.3,6.9-10l0.3-0.3c0.1-0.1-0.1,0.1,0.3-0.3l0.1-0.1l0.5-0.4l0.9-0.8
		c0.9-0.6,1.9-1.4,2.7-1.9c0.9-0.5,1.8-1,2.7-1.4l1.4-0.6l1.4-0.4c1.9-0.6,3.8-0.9,5.7-1c1.9-0.1,3.8,0,5.6,0.3c3.6,0.6,7,2,9.9,4.1
		c0.7,0.5,1.4,1.1,2,1.6c0.6,0.6,1.2,1.2,1.8,1.8c0,0,0.3,0.4,0.2,0.3l0.1,0.1l0.2,0.2l0.3,0.4c0.2,0.3,0.4,0.5,0.7,0.9l0.8,1.2
		c0.3,0.4,0.4,0.7,0.6,1.1c1.6,3,2.3,6.2,2.3,9.3c0,6.2-3.2,11.6-7.1,14.6c-4.4,3.3-9.5,3.7-13.5,2.4c-2-0.6-3.7-1.6-5-2.8
		c-1.3-1.2-2.4-2.5-3.1-4c-1.3-2.9-1.2-5.6-0.6-7.6c0.6-2,1.5-3.2,2.2-4c0.3-0.4,0.6-0.6,0.8-0.8c0.2-0.2,0.3-0.3,0.3-0.3
		s-0.1,0.1-0.2,0.3c-0.2,0.2-0.4,0.5-0.6,0.9c-0.5,0.8-1.2,2.2-1.4,4c-0.2,1.8,0.1,4.2,1.5,6.3c0.7,1,1.7,2,2.9,2.8
		c1.2,0.8,2.6,1.4,4.2,1.6c1.5,0.2,3.2,0.2,4.8-0.3c0.8-0.3,1.6-0.5,2.3-1c0.4-0.2,0.7-0.5,1.1-0.7c0.2-0.1,0.3-0.3,0.4-0.4
		c0.2-0.1,0.3-0.2,0.5-0.4c1.3-1.4,2.3-2.9,3-4.7c0.7-1.8,0.9-3.8,0.7-5.7c-0.2-2-0.9-3.9-2.1-5.6c-0.1-0.2-0.3-0.4-0.4-0.6
		c-0.1-0.2-0.3-0.3-0.4-0.5c-0.1-0.1-0.1-0.1-0.2-0.3l-0.4-0.4l-0.4-0.4l-0.2-0.2l-0.1-0.1c-0.2-0.2,0.1,0.1,0.1,0.1
		c-0.4-0.3-0.9-0.7-1.3-1c-0.5-0.3-0.9-0.6-1.4-0.9c-3.9-2.1-8.8-2.6-13.1-0.8L66,55.2l-0.8,0.4c-0.5,0.2-1,0.6-1.5,0.9
		c-0.5,0.3-0.7,0.6-1.1,0.9l-0.9,0.8l-0.4,0.4l-0.1,0.1c0.4-0.4,0.1,0,0.1-0.1l-0.1,0.2c-1.7,1.9-2.9,4.1-3.7,6.5
		c-1.6,4.8-1.2,10.4,1.4,14.9c0.3,0.6,0.7,1.1,1,1.6c0.4,0.5,0.7,0.8,1,1.3l0.9,1l0.5,0.5l0.2,0.2c0.3,0.3-0.2-0.2-0.1-0.1l0.1,0.1
		c0.5,0.5,1.1,0.9,1.6,1.4c2.3,1.7,4.8,3,7.5,3.8c2.7,0.8,5.6,1.2,8.5,1c2.9-0.2,5.7-0.9,8.3-2.1c0.6-0.4,1.3-0.6,1.9-1l0.9-0.6
		c0.3-0.2,0.7-0.4,0.9-0.6c0.2-0.2,0.5-0.4,0.7-0.6l0.4-0.3c0.1-0.1,0.2-0.1,0.4-0.3l1.9-1.7c2.1-2.3,3.9-4.9,5.4-7.6
		c1.4-2.8,2.3-5.9,2.8-9c0.5-3.1,0.5-6.3,0-9.4l-0.2-1.2c-0.1-0.4-0.2-0.8-0.3-1.2l-0.3-1.2c-0.1-0.4-0.2-0.8-0.3-1.1l-0.8-2.2
		l-1-2.1c-0.2-0.4-0.4-0.7-0.6-1l-0.6-1c-0.2-0.3-0.4-0.7-0.6-1c-0.2-0.3-0.4-0.5-0.6-0.8l-0.6-0.8c-0.1-0.1-0.2-0.3-0.3-0.4
		l-0.5-0.6L94.8,41c0.6,0.6,0.1,0.1,0.2,0.2l-0.1-0.1l-0.2-0.2l-0.5-0.4l-0.9-0.8c-0.6-0.6-1.2-1.2-1.9-1.6l-2-1.5
		c-0.7-0.5-1.4-0.9-2.2-1.3c-1.4-0.9-3-1.6-4.5-2.3l-0.6-0.3l-0.6-0.2L80.1,32l-1.2-0.4l-0.6-0.2l-0.6-0.1l-2.5-0.6l-0.6-0.2
		L74,30.4l-1.3-0.2L71.5,30l-0.6-0.1l-0.6,0l-2.5-0.1l-0.6,0l-0.6,0l-1.3,0.1l-1.3,0.1l-0.6,0L62.7,30l-2.5,0.4l-0.6,0.1l-0.6,0.2
		l-1.2,0.3c-3.3,0.7-6.4,2-9.4,3.5c-1.4,0.9-3,1.6-4.1,2.5l-1.9,1.3l-2.3,2l-1.1,1l-0.1,0.1c-0.1,0.1,0.5-0.5,0.2-0.2l-0.2,0.2
		l-0.5,0.5c-0.6,0.6-1.2,1.2-1.8,1.9c-0.6,0.7-1.2,1.3-1.7,2c-0.5,0.7-1.1,1.4-1.6,2.1c-2.1,2.8-3.8,5.8-5.3,8.9
		c-2.9,6.3-4.5,13-4.8,19.8c-0.3,6.8,0.7,13.5,2.7,19.7c1,3.1,2.4,6.1,3.9,8.9c0.4,0.7,0.8,1.4,1.2,2.1c0.4,0.7,0.9,1.3,1.3,2
		c0.9,1.3,1.9,2.6,2.8,3.8c0.2,0.3,0.4,0.6,0.7,0.9l0.9,1l0.9,1l0.1,0.1c-0.2-0.2,0,0,0,0l0.2,0.2l0.4,0.4c0.6,0.6,1.1,1.2,1.7,1.7
		c0.6,0.5,1.2,1.1,1.7,1.6c1.1,1.1,2.4,2.1,3.6,3.1c1.3,0.9,2.4,1.9,3.7,2.8c0.6,0.4,1.3,0.9,1.9,1.3c0.7,0.4,1.3,0.8,2,1.2
		c1.3,0.8,2.6,1.5,3.9,2.2c2.7,1.3,5.4,2.6,8.1,3.6c2.7,1.1,5.4,1.8,8.2,2.5c2.7,0.6,5.4,1.2,8.1,1.5c5.3,0.7,10.5,0.7,15.3,0.4
		c9.7-0.7,17.9-3.3,24.4-6.1c6.5-2.9,11.3-6,14.4-8.3c1.6-1.1,2.7-2.1,3.5-2.7C139.5,121,139.9,120.7,139.9,120.7z"/>
</g>
<path fill="none" stroke="#DBAF40" stroke-width="8.6369" stroke-miterlimit="10" d="M82.9,91.9"/>
</svg>
