<svg width="136" height="55" viewBox="0 0 136 55" fill="none" xmlns="http://www.w3.org/2000/svg">
<path d="M68.0003 55C62.5378 55 55.5264 52.8113 47.1604 48.4946C37.0302 43.2676 25.2732 40.5043 13.1605 40.5043H0.00773654V40.1815H13.1605C19.204 40.1815 25.2075 40.8736 31.0036 42.2378C36.7829 43.5982 42.2686 45.6067 47.3079 48.2073C55.6275 52.5001 62.5894 54.6772 68.0003 54.6772C73.4106 54.6772 80.3725 52.5001 88.6928 48.2073C93.7327 45.6067 99.2184 43.5982 104.997 42.2378C110.794 40.873 116.797 40.1815 122.84 40.1815H135.993V40.5043H122.84C110.727 40.5043 98.9704 43.2669 88.8403 48.4946C80.4743 52.8113 73.4628 55 68.0003 55Z" fill="black"/>
<path d="M68.0003 49.8111C62.715 49.8111 55.9309 47.727 47.8347 43.6175C38.0279 38.6391 26.6457 36.0075 14.9195 36.0075H2.18859V35.7169H14.9195C20.7678 35.7169 26.5774 36.3755 32.1867 37.6751C37.7793 38.9703 43.0885 40.8826 47.9655 43.3586C56.0204 47.4474 62.7607 49.5212 67.9997 49.5212C73.2387 49.5212 79.9796 47.4481 88.0339 43.3586C92.9109 40.8826 98.2194 38.9709 103.813 37.6751C109.422 36.3761 115.232 35.7169 121.08 35.7169H133.811V36.0075H121.08C109.354 36.0075 97.9714 38.6391 88.1646 43.6175C80.0698 47.727 73.285 49.8111 68.0003 49.8111Z" fill="black"/>
<path d="M68.0003 44.6221C62.8927 44.6221 56.3347 42.6433 48.5091 38.7404C39.0256 34.0105 28.0189 31.5107 16.6792 31.5107H4.37011V31.2524H16.6792C28.0582 31.2524 39.1048 33.762 48.6237 38.5093C56.4133 42.3941 62.9327 44.3639 67.9997 44.3639C73.0673 44.3639 79.5861 42.3941 87.3756 38.5093C96.8945 33.762 107.941 31.2524 119.32 31.2524H131.629V31.5107H119.32C107.98 31.5107 96.9737 34.0105 87.4903 38.7404C79.6659 42.6433 73.1079 44.6221 68.0003 44.6221Z" fill="black"/>
<path d="M68.0003 39.4325C63.0699 39.4325 56.7392 37.5589 49.1834 33.8627C40.0227 29.382 29.3914 27.0132 18.4388 27.0132H6.55162V26.7872H18.4388C29.4256 26.7872 40.0916 29.1638 49.2826 33.6593C56.8068 37.3401 63.1046 39.2059 68.0003 39.2059C72.896 39.2059 79.1938 37.3394 86.718 33.6593C95.9091 29.1631 106.574 26.7872 117.562 26.7872H129.448V27.0132H117.562C106.609 27.0132 95.9773 29.3814 86.8172 33.8627C79.2615 37.5589 72.9308 39.4325 68.0003 39.4325Z" fill="black"/>
<path d="M68.0003 34.2436C63.247 34.2436 57.143 32.4746 49.8578 28.9856C41.021 24.7535 30.7646 22.5164 20.1984 22.5164H8.73377V22.3227H20.1984C30.7936 22.3227 41.0783 24.5663 49.9409 28.8106C57.1997 32.2867 63.276 34.0499 68.0003 34.0499C72.7247 34.0499 78.8009 32.2873 86.0598 28.8106C94.923 24.5663 105.208 22.3227 115.802 22.3227H127.267V22.5164H115.802C105.236 22.5164 94.9797 24.7535 86.1428 28.9856C78.8576 32.4746 72.7536 34.2436 68.0003 34.2436Z" fill="black"/>
<path d="M68.0003 29.0547C63.4241 29.0547 57.5469 27.3902 50.5315 24.1085C42.018 20.1256 32.1371 18.0202 21.9581 18.0202H10.9146V17.8588H21.9574C32.1603 17.8588 42.0644 19.9694 50.5991 23.9626C57.5932 27.2346 63.4473 28.8939 68.0003 28.8939C72.5527 28.8939 78.4074 27.2346 85.4009 23.9626C93.9356 19.9694 103.84 17.8588 114.043 17.8588H125.085V18.0202H114.043C103.863 18.0202 93.9826 20.1256 85.4685 24.1085C78.4538 27.3902 72.5765 29.0547 68.0003 29.0547Z" fill="black"/>
<path d="M68.0003 23.8657C63.6012 23.8657 57.9501 22.3065 51.2052 19.2308C43.0151 15.4964 33.5097 13.5227 23.7171 13.5227H13.0961V13.3936H23.7171C33.5277 13.3936 43.0511 15.3712 51.258 19.1133C57.9868 22.1806 63.6193 23.7366 67.9997 23.7366C72.3801 23.7366 78.0132 22.1813 84.7413 19.1133C92.9482 15.3718 102.472 13.3936 112.282 13.3936H122.903V13.5227H112.282C102.49 13.5227 92.9843 15.4964 84.7941 19.2308C78.0499 22.3059 72.3994 23.8657 68.0003 23.8657Z" fill="black"/>
<path d="M68.0003 18.6762C63.7777 18.6762 58.3539 17.2216 51.8783 14.353C44.0115 10.8679 34.8822 9.02592 25.4767 9.02592H15.2777V8.92907H25.4767C34.8958 8.92907 44.0385 10.7743 51.9176 14.2646C58.3803 17.1279 63.7919 18.5793 68.0003 18.5793C72.2087 18.5793 77.6203 17.1273 84.0831 14.2646C91.9621 10.7743 101.105 8.92907 110.524 8.92907H120.723V9.02592H110.524C101.118 9.02592 91.9885 10.8679 84.1217 14.353C77.6468 17.2216 72.2223 18.6762 68.0003 18.6762Z" fill="black"/>
<path d="M68.0003 13.4872C63.9548 13.4872 58.7571 12.1372 52.5514 9.47528C45.0085 6.23938 36.2541 4.5291 27.2357 4.5291H17.4585V4.46454H27.2357C36.2625 4.46454 45.0253 6.17675 52.5765 9.41588C58.7738 12.0746 63.9632 13.4227 67.9997 13.4227C72.0362 13.4227 77.2255 12.0746 83.4229 9.41588C90.9741 6.17675 99.7369 4.46454 108.764 4.46454H118.541V4.5291H108.764C99.7452 4.5291 90.9915 6.23938 83.448 9.47528C77.2436 12.1372 72.0458 13.4872 68.0003 13.4872Z" fill="black"/>
<path d="M68.0003 8.29829C64.1313 8.29829 59.1603 7.05352 53.2244 4.59754C46.0049 1.61085 37.6267 0.0322815 28.9953 0.0322815H19.6407V0H28.9953C37.6305 0 46.0133 1.57921 53.2367 4.56784C59.1687 7.02188 64.1358 8.26601 68.0003 8.26601C71.8648 8.26601 76.832 7.02188 82.764 4.56784C89.9874 1.57986 98.3695 0 107.005 0H116.36V0.0322815H107.005C98.374 0.0322815 89.9958 1.61085 82.7762 4.59754C76.8404 7.05287 71.8693 8.29829 68.0003 8.29829Z" fill="black"/>
<path d="M68.0003 8.28215L68.1613 54.8386H67.8393L68.0003 8.28215Z" fill="black"/>
<path d="M65.5232 8.12978L64.6479 54.57L64.3587 54.5642L65.5232 8.12978Z" fill="black"/>
<path d="M63.046 7.73078L61.1363 53.8624L60.8793 53.8508L63.046 7.73078Z" fill="black"/>
<path d="M60.5689 7.1523L57.6486 52.8281L57.4232 52.8126L60.5689 7.1523Z" fill="black"/>
<path d="M56.8995 6.01082L52.4592 50.8118L52.2667 50.7924L56.8995 6.01082Z" fill="black"/>
<path d="M53.2302 4.58269L47.3137 48.3623L47.1546 48.3403L53.2302 4.58269Z" fill="black"/>
<path d="M47.3839 2.54508L39.1461 44.8158L39.0198 44.7906L47.3839 2.54508Z" fill="black"/>
<path d="M41.4139 1.14083L30.7659 42.3502L30.6719 42.3256L41.4139 1.14083Z" fill="black"/>
<path d="M35.2944 0.30151L22.1288 40.8626L22.0676 40.8426L35.2944 0.30151Z" fill="black"/>
<path d="M28.9953 0.0161408L13.1754 40.3487L13.1451 40.3371L28.9953 0.0161408Z" fill="black"/>
<path d="M0 40.3397L19.6407 0.0161408L0.0148126 40.3468L0 40.3397Z" fill="black"/>
<path d="M68.0003 8.28215L68.1613 54.8386H67.8393L68.0003 8.28215Z" fill="black"/>
<path d="M70.4775 8.12978L71.642 54.5642L71.3521 54.57L70.4775 8.12978Z" fill="black"/>
<path d="M72.9546 7.73078L75.1213 53.8508L74.8637 53.8624L72.9546 7.73078Z" fill="black"/>
<path d="M75.4318 7.1523L78.5768 52.8126L78.352 52.8281L75.4318 7.1523Z" fill="black"/>
<path d="M79.1011 6.01082L83.7333 50.7924L83.5414 50.8118L79.1011 6.01082Z" fill="black"/>
<path d="M82.7698 4.58269L88.846 48.3403L88.6863 48.3623L82.7698 4.58269Z" fill="black"/>
<path d="M88.6161 2.54508L96.9808 44.7906L96.8546 44.8158L88.6161 2.54508Z" fill="black"/>
<path d="M94.5868 1.14083L105.328 42.3256L105.235 42.3502L94.5868 1.14083Z" fill="black"/>
<path d="M100.706 0.30151L113.932 40.8426L113.871 40.8626L100.706 0.30151Z" fill="black"/>
<path d="M107.005 0.0161408L122.855 40.3371L122.825 40.3487L107.005 0.0161408Z" fill="black"/>
<path d="M135.986 40.3468L116.36 0.0161408L136 40.3397L135.986 40.3468Z" fill="black"/>
</svg>
