<svg width="169" height="64" viewBox="0 0 169 64" fill="none" xmlns="http://www.w3.org/2000/svg">
<path d="M23.8345 64C15.9164 64 8.00326 64 0.125207 63.9948H0V63.8656C0.0150249 45.0077 0.0150249 24.77 0 0.175711V0.0465116H0.125207C19.2619 0.0413437 38.3686 0.0516796 57.4902 0.0568475C93.9957 0.0671835 131.748 0.0775194 168.875 0.0465116H169V0.175711C169 8.24289 169 16.3152 168.995 24.3824C168.99 37.323 168.98 50.7028 169 63.8656V63.9948H168.875C137.167 63.969 104.929 63.9793 73.7572 63.9897C57.365 63.9948 40.5972 64 23.8345 64ZM0.255428 63.7364C24.756 63.7468 49.6673 63.7364 73.7572 63.7313C104.889 63.7209 137.087 63.7106 168.75 63.7364C168.73 50.6202 168.74 37.2817 168.745 24.3824C168.75 16.3566 168.755 8.33075 168.75 0.30491C131.663 0.335917 93.9557 0.325581 57.4902 0.315245C38.9245 0.310078 20.3587 0.30491 1.79796 0.30491C1.28211 0.30491 0.771283 0.30491 0.255428 0.30491C0.265445 24.7855 0.265445 44.9509 0.255428 63.7364Z" fill="black"/>
<path d="M29.5439 60.8475C19.7427 60.8475 9.91142 60.6253 0.125207 60.0155L0.140216 59.7571C22.9981 61.1835 46.1414 60.4806 68.5185 59.8036C73.1963 59.6641 78.0293 59.5142 82.7922 59.3902C100.887 58.9147 119.192 59.1835 136.892 59.4367C147.359 59.5866 158.182 59.7468 168.865 59.7519V60.0103C158.182 60.0052 147.359 59.8501 136.892 59.6951C119.192 59.4367 100.887 59.1731 82.8022 59.6486C78.0393 59.7726 73.2013 59.9173 68.5285 60.062C55.7173 60.4548 42.6557 60.8475 29.5439 60.8475Z" fill="black"/>
<path d="M27.3203 58.6977C18.1701 58.6977 9.44563 57.4935 0.110168 56.0413L0.14523 55.7829C12.7561 57.7416 24.2502 59.2558 37.1766 57.9432L38.018 57.8605C51.4252 56.5013 65.2882 55.0956 78.9859 54.522C94.3113 53.876 109.782 54.5065 124.737 55.1214C139.171 55.7106 154.095 56.3204 168.85 55.7778L168.86 56.0362C154.095 56.5788 139.166 55.969 124.727 55.3798C109.777 54.77 94.3113 54.1344 78.9959 54.7804C65.3032 55.3592 51.4452 56.7597 38.043 58.1189L37.2016 58.2067C33.826 58.5478 30.5456 58.6977 27.3203 58.6977Z" fill="black"/>
<path d="M22.2719 54.5426C14.6242 54.5426 7.57754 53.416 0.110168 52.062L0.155256 51.8088C10.9181 53.7623 20.8095 55.2403 32.8895 53.5401L36.2 53.0749C48.5304 51.3282 61.2815 49.5245 73.9375 49.0594C89.4131 48.491 105.019 49.509 120.109 50.491C136.055 51.5297 152.543 52.6047 168.865 51.7985L168.875 52.0569C152.538 52.8631 136.045 51.7881 120.094 50.7494C105.014 49.7674 89.4181 48.7494 73.9475 49.3178C61.3066 49.7829 48.5604 51.5866 36.235 53.3282L32.9296 53.7933C29.1934 54.3204 25.6725 54.5426 22.2719 54.5426Z" fill="black"/>
<path d="M6.79125 48.2636C4.56757 48.2636 2.34887 48.2067 0.135203 48.0775L0.150243 47.8191C12.7111 48.553 25.4371 46.9922 37.7425 45.478C47.7892 44.2429 58.1714 42.9664 68.4584 42.9354C68.789 42.9354 69.1245 42.9354 69.4551 42.9354C86.4382 42.9354 103.592 44.1757 120.189 45.3747C136.121 46.5271 152.593 47.7209 168.88 47.8088V48.0672C152.588 47.9742 136.111 46.7855 120.174 45.6331C103.582 44.4341 86.4332 43.1938 69.4601 43.1938C69.1295 43.1938 68.794 43.1938 68.4634 43.1938C58.1914 43.2248 47.8142 44.5013 37.7776 45.7313C27.6208 46.9819 17.1885 48.2636 6.79125 48.2636Z" fill="black"/>
<path d="M160.937 44.2377C143.938 44.2377 127.03 42.2946 110.598 40.4083C95.1977 38.6408 79.2763 36.8114 63.385 36.584C52.8075 36.4393 42.3752 38.4341 32.2985 40.3618C21.8662 42.3618 11.0833 44.4289 0.135203 44.093L0.14523 43.8346C11.0483 44.1705 21.8312 42.1034 32.2534 40.1085C42.3401 38.1757 52.7624 36.1757 63.39 36.3256C79.2914 36.5478 95.2227 38.3773 110.628 40.1499C129.61 42.3307 149.237 44.5891 168.875 43.8295L168.885 44.0879C166.235 44.1912 163.586 44.2377 160.937 44.2377Z" fill="black"/>
<path d="M147.7 42.8424C146.037 42.8424 144.339 42.7545 142.601 42.5426C135.795 41.7261 128.889 40.4238 122.207 39.168C118.802 38.5271 115.286 37.8605 111.83 37.2713C107.263 36.491 102.605 35.5866 98.1075 34.708C85.5617 32.2636 72.5853 29.7313 59.6689 29.6176C59.5186 29.6176 59.3633 29.6176 59.2131 29.6176C49.4469 29.6176 42.1048 32.3928 33.5506 36.0155C22.4572 40.7132 12.5458 41.0698 0.14523 40.1189L0.165282 39.8605C12.5308 40.8114 22.4121 40.4548 33.4604 35.7778C42.0396 32.1447 49.4068 29.3592 59.2181 29.3592C59.3734 29.3592 59.5236 29.3592 59.6789 29.3592C72.6203 29.4729 85.6068 32.0052 98.1626 34.4548C102.665 35.3333 107.318 36.2377 111.88 37.0181C115.336 37.6072 118.857 38.2687 122.263 38.9147C128.939 40.1757 135.84 41.4729 142.641 42.2894C149.618 43.1214 155.843 42.0465 162.434 40.9044C164.518 40.5426 166.676 40.1705 168.875 39.8553L168.91 40.1137C166.711 40.4238 164.558 40.801 162.474 41.1576C157.496 42.0207 152.733 42.8424 147.7 42.8424Z" fill="black"/>
<path d="M148.125 40.5168C146.813 40.5168 145.466 40.4289 144.069 40.2274C136.476 39.1421 128.743 37.354 121.261 35.6176C118.486 34.9767 115.617 34.3101 112.817 33.6951C107.198 32.4651 101.393 30.832 95.7837 29.2506C83.4482 25.7726 70.6821 22.1757 58.0912 22.2584C48.27 22.3152 43.2967 26.1809 35.7693 32.0362L35.5589 32.2015C25.938 39.6796 14.4389 38.1034 3.3205 36.5736C2.25874 36.4289 1.19696 36.2791 0.135203 36.1447L0.165282 35.8863C1.22704 36.0258 2.2888 36.1705 3.35557 36.3152C14.4239 37.8346 25.8728 39.4057 35.4137 31.9948L35.624 31.8295C42.9211 26.155 48.1948 22.0568 58.0963 22C58.2265 22 58.3567 22 58.4819 22C70.9926 22 83.6285 25.5607 95.8538 29.0026C101.458 30.584 107.258 32.2171 112.872 33.447C115.677 34.062 118.546 34.7235 121.321 35.3695C128.798 37.1008 136.526 38.8889 144.109 39.9742C150.75 40.9199 156.249 39.3437 162.078 37.6744C164.247 37.0543 166.491 36.4083 168.86 35.8811L168.915 36.1344C166.556 36.6615 164.317 37.3023 162.149 37.9225C157.511 39.2455 153.084 40.5168 148.125 40.5168Z" fill="black"/>
<path d="M147.539 36.6925C146.563 36.6925 145.576 36.6357 144.564 36.5168C135.795 35.4625 126.77 33.0078 118.046 30.6357C116.748 30.2842 115.461 29.9328 114.184 29.5917C108.209 27.9897 101.989 25.6796 95.974 23.4522C84.0693 19.0388 71.7589 14.4703 59.5887 14.4703C59.5537 14.4703 59.5236 14.4703 59.4885 14.4703C49.6072 14.491 45.3451 18.9561 39.4454 25.137C38.7993 25.814 38.1332 26.5116 37.442 27.2248C28.3069 36.6253 15.9765 34.6667 4.0517 32.77C2.75955 32.5633 1.42734 32.3514 0.135203 32.1602L0.170265 31.9018C1.46741 32.093 2.79963 32.3049 4.09177 32.5116C15.9564 34.3979 28.2217 36.3463 37.2667 27.0388C37.9629 26.3256 38.624 25.6279 39.27 24.9509C45.2099 18.7235 49.502 14.2274 59.4885 14.2067C59.5236 14.2067 59.5537 14.2067 59.5887 14.2067C71.804 14.2067 84.1344 18.7804 96.0591 23.2041C102.069 25.4315 108.284 27.7364 114.249 29.3385C115.526 29.6796 116.814 30.031 118.111 30.3824C126.83 32.7545 135.84 35.2041 144.595 36.2584C150.324 36.9457 155.417 35.478 160.806 33.9225C163.406 33.1731 166.095 32.3979 168.85 31.8915L168.895 32.1447C166.15 32.646 163.466 33.4212 160.872 34.1705C156.409 35.4625 152.142 36.6925 147.539 36.6925Z" fill="black"/>
<path d="M145.516 32.0672C144.66 32.0672 143.798 32.0362 142.937 31.9638C133.581 31.2093 124.066 28.801 114.329 26.1809C108.465 24.6047 102.35 22.2894 96.4348 20.0465C85.0108 15.7209 73.2013 11.2506 61.5369 11.2506C61.4718 11.2506 61.4017 11.2506 61.3366 11.2506C51.896 11.292 47.0429 15.6693 40.8977 21.2093C40.0614 21.9638 39.1949 22.7442 38.2884 23.5401C28.4572 32.1757 15.8913 30.3928 3.73617 28.6718C2.52917 28.5013 1.32718 28.3308 0.140216 28.1705L0.170265 27.9121C1.36224 28.0724 2.55922 28.2429 3.77123 28.4134C15.8663 30.1292 28.377 31.9018 38.1232 23.3385C39.0247 22.5426 39.8911 21.7623 40.7325 21.0078C46.9177 15.4315 51.8008 11.0233 61.3366 10.9819C61.4017 10.9819 61.4718 10.9819 61.5369 10.9819C73.2463 10.9819 85.076 15.4625 96.5199 19.7933C102.7 22.1344 108.54 24.3463 114.395 25.9173C124.121 28.5323 133.621 30.9406 142.957 31.6899C148.907 32.1705 154.781 30.8527 160.461 29.5762C163.205 28.9612 166.04 28.3256 168.86 27.8966L168.895 28.155C166.085 28.584 163.25 29.2196 160.511 29.8346C155.633 30.9406 150.615 32.0672 145.516 32.0672Z" fill="black"/>
<path d="M137.588 26.0672C129.685 26.0672 121.747 25.3592 113.448 23.1576C107.673 21.6227 101.714 19.3127 95.949 17.0749C85.3865 12.9767 74.4584 8.73385 63.5353 8.69251C63.5002 8.69251 63.4601 8.69251 63.4251 8.69251C54.4302 8.69251 48.7708 12.7752 42.2199 17.4987C41.1331 18.2791 40.0113 19.0904 38.8494 19.9018C27.9413 27.4935 15.07 25.969 2.62434 24.4961C1.79297 24.3979 0.961572 24.2997 0.135203 24.2016L0.160269 23.9432C0.986638 24.0362 1.818 24.1344 2.64938 24.2326C15.0499 25.7003 27.8762 27.2196 38.7091 19.6796C39.871 18.8734 40.9929 18.062 42.0797 17.2817C48.6906 12.5168 54.4051 8.40827 63.5353 8.42894C74.5084 8.47028 85.4515 12.7183 96.0391 16.8269C101.799 19.0594 107.754 21.3747 113.513 22.8992C129.089 27.0336 143.423 25.8915 158.593 24.6873C161.928 24.4238 165.379 24.1499 168.865 23.9277L168.88 24.186C165.394 24.4031 161.948 24.677 158.613 24.9457C151.491 25.5142 144.555 26.0672 137.588 26.0672Z" fill="black"/>
<path d="M127.436 22.2636C122.783 22.2636 118.136 21.6072 112.847 20.2636C107.138 18.8165 101.338 16.5581 95.7286 14.3824C86.1427 10.6563 76.2263 6.8062 66.1195 6.65116C57.335 6.50646 50.699 10.1344 43.6724 13.9638C42.255 14.7339 40.7876 15.5349 39.2851 16.3152C26.8845 22.7442 13.282 21.4625 0.130221 20.2274L0.150243 19.969C13.267 21.2041 26.8294 22.4806 39.1699 16.0827C40.6724 15.3075 42.1348 14.5065 43.5521 13.7364C50.6138 9.89147 57.2699 6.2584 66.1245 6.39277C76.2764 6.5478 86.2078 10.4083 95.8137 14.1447C101.413 16.3204 107.208 18.5736 112.902 20.0207C121.957 22.3204 129.129 22.6047 137.663 21.0078C146.372 19.3747 155.292 19.6124 163.917 19.845C165.564 19.8863 167.212 19.9328 168.865 19.9638L168.86 20.2222C167.207 20.1912 165.559 20.1447 163.912 20.1034C155.297 19.876 146.388 19.6382 137.708 21.2662C134.132 21.9225 130.782 22.2636 127.436 22.2636Z" fill="black"/>
<path d="M123.52 18.5116C120.485 18.5116 117.415 18.0879 113.819 17.2662C108.089 15.9587 102.365 13.8656 96.8254 11.845C87.9006 8.58398 78.6703 5.21447 69.1245 4.99742C60.4752 4.80103 53.148 7.64858 45.4052 10.6615C43.5622 11.3798 41.659 12.1189 39.7358 12.8165C26.4638 17.6331 12.8914 17.1473 0.130221 16.2377L0.150243 15.9793C12.8863 16.8889 26.4288 17.3747 39.6557 12.5736C41.5789 11.876 43.482 11.137 45.3201 10.4186C53.0829 7.39535 60.4151 4.54264 69.1345 4.73902C78.7204 4.95607 87.9657 8.33592 96.9105 11.6021C102.44 13.6227 108.159 15.7106 113.874 17.0129C122.217 18.9199 127.727 18.6615 136.531 15.9587C144.414 13.5401 152.888 14.4134 161.082 15.2662C163.651 15.5297 166.311 15.8088 168.875 15.969L168.86 16.2274C166.29 16.0672 163.626 15.7881 161.057 15.5245C152.883 14.677 144.434 13.8036 136.601 16.2067C131.543 17.7623 127.566 18.5116 123.52 18.5116Z" fill="black"/>
<path d="M123.424 14.4858C121.421 14.4858 119.268 14.2894 116.768 13.8191C111.009 12.7287 105.249 10.9974 99.6851 9.31783C90.9106 6.67183 81.8406 3.94315 72.5352 3.67959C63.7206 3.43669 55.6422 5.49871 47.098 7.68992C44.8643 8.26357 42.5555 8.85271 40.2567 9.39535C28.6525 12.1189 16.277 12.9974 0.130221 12.2481L0.140216 11.9897C16.2669 12.739 28.6224 11.8605 40.2016 9.14212C42.4954 8.60465 44.8042 8.01034 47.0379 7.44186C55.6021 5.24548 63.6955 3.17313 72.5452 3.42119C81.8807 3.68475 90.9707 6.42377 99.7603 9.06977C105.319 10.7442 111.069 12.4755 116.819 13.5607C123.995 14.9199 128.353 13.9742 134.378 12.6667C135.464 12.4289 136.586 12.186 137.793 11.9432C146.157 10.2481 154.165 10.8734 162.644 11.5297C164.678 11.6899 166.786 11.8501 168.885 11.9793L168.87 12.2377C166.766 12.1085 164.663 11.9432 162.624 11.7881C154.165 11.1318 146.172 10.5116 137.843 12.1964C136.636 12.4393 135.515 12.6822 134.433 12.9199C130.461 13.7829 127.216 14.4858 123.424 14.4858Z" fill="black"/>
<path d="M125.743 10.3618C123.795 10.3618 121.757 10.2274 119.528 9.91214C113.899 9.11111 108.244 7.86563 102.77 6.66667C94.151 4.77003 85.2362 2.81654 76.2563 2.5478C63.4501 2.16537 50.4886 3.80362 37.9579 5.39018C25.6124 6.9509 12.8513 8.56331 0.135203 8.2739L0.140216 8.0155C12.8363 8.31008 25.5924 6.69251 37.9278 5.13695C50.4686 3.55039 63.4301 1.91214 76.2613 2.29457C85.2662 2.56331 94.191 4.52196 102.825 6.4186C108.294 7.61757 113.949 8.86305 119.563 9.65892C126.434 10.6357 131.448 9.85013 137.798 8.85271C138.57 8.73385 139.356 8.60982 140.172 8.48579C148.065 7.28165 155.633 7.55556 163.641 7.84496C165.354 7.90698 167.122 7.96899 168.88 8.0155L168.875 8.2739C167.117 8.22739 165.344 8.16537 163.631 8.10336C155.633 7.81395 148.075 7.54522 140.207 8.74419C139.396 8.86822 138.605 8.99225 137.833 9.11111C133.521 9.77778 129.825 10.3618 125.743 10.3618Z" fill="black"/>
<path d="M131.793 5.86047C128.333 5.86047 124.882 5.74677 121.466 5.46253C116.172 5.01809 110.809 4.35659 105.62 3.71576C97.3212 2.69251 88.737 1.62791 80.2279 1.44186C66.1847 1.13695 51.901 2 38.0831 2.83204C25.6475 3.58656 12.7862 4.35659 0.125207 4.28424V4.02584C12.7712 4.10336 25.6325 3.32817 38.0681 2.57364C51.891 1.73643 66.1847 0.878553 80.2329 1.18346C88.7571 1.36951 97.3463 2.43411 105.65 3.45736C110.834 4.09819 116.198 4.75969 121.486 5.20413C131.328 6.02584 141.489 5.40568 151.311 4.81137C157.08 4.45995 163.05 4.09819 168.87 4.03101L168.875 4.28941C163.055 4.35659 157.095 4.71835 151.326 5.06977C144.9 5.46253 138.324 5.86047 131.793 5.86047Z" fill="black"/>
<path d="M158.177 63.8966C156.319 57.8346 157.396 52.584 158.437 47.509C159.284 43.3747 160.165 39.1008 159.494 34.3514C159.094 31.5142 158.147 28.7752 157.225 26.124C156.334 23.5504 155.412 20.8941 154.987 18.1344C154.291 13.6021 155.488 9.64858 156.75 5.4677C157.271 3.75194 157.806 1.97933 158.202 0.155039L158.447 0.211886C158.047 2.04651 157.511 3.82429 156.99 5.54522C155.733 9.70026 154.546 13.6227 155.232 18.0982C155.653 20.832 156.569 23.478 157.456 26.0413C158.377 28.7028 159.334 31.4574 159.735 34.3204C160.411 39.1163 159.524 43.4109 158.673 47.5659C157.591 52.8424 156.569 57.8243 158.402 63.8243L158.177 63.8966Z" fill="black"/>
<path d="M147.61 63.9225C143.282 57.5194 142.025 54.3669 146.057 46.5943C146.858 45.0491 147.605 44.1034 148.206 43.3437C149.488 41.7209 150.134 40.9044 149.483 36.6925C148.967 33.3592 147.119 30.2532 145.326 27.2455C143.267 23.7881 141.139 20.2171 140.969 16.2274C140.798 12.2791 142.646 9.25581 144.605 6.05168C145.736 4.19638 146.913 2.2739 147.665 0.149871L147.9 0.237726C147.139 2.3876 145.962 4.32041 144.82 6.18605C142.887 9.35401 141.054 12.3463 141.224 16.2171C141.394 20.1395 143.503 23.6848 145.546 27.1111C147.349 30.1395 149.212 33.2713 149.733 36.6512C150.399 40.9767 149.688 41.8708 148.401 43.5039C147.81 44.2584 147.069 45.1886 146.277 46.7132C142.291 54.3928 143.463 57.3333 147.815 63.7726L147.61 63.9225Z" fill="black"/>
<path d="M137.032 63.9173C132.73 58.2222 130.451 53.3902 132.369 46.8889C132.965 44.8734 134.072 43.2403 135.149 41.6641C136.531 39.6331 137.838 37.7106 138.029 35.1111C138.244 32.1705 136.837 29.8295 135.349 27.3488C134.092 25.2506 132.79 23.0801 132.555 20.5168C132.224 16.8527 133.451 13.3902 134.753 9.72093C135.835 6.677 136.952 3.52455 137.132 0.196382L137.383 0.211886C137.197 3.5814 136.075 6.74418 134.989 9.80878C133.696 13.447 132.479 16.8837 132.805 20.491C133.03 22.9922 134.318 25.137 135.56 27.2093C137.007 29.6176 138.499 32.1085 138.279 35.1266C138.084 37.7984 136.757 39.7468 135.354 41.8088C134.292 43.3695 133.196 44.9871 132.61 46.9612C130.722 53.354 132.98 58.1292 137.232 63.7519L137.032 63.9173Z" fill="black"/>
<path d="M126.469 63.9121C122.202 58.4806 117.76 48.9664 117.93 42.0362C117.98 39.938 118.802 38.0982 119.598 36.3101C120.339 34.646 121.046 33.0698 121.171 31.3075C121.316 29.2455 120.605 27.5917 119.919 25.9948C119.283 24.5116 118.622 22.9819 118.677 21.1576C119.468 17.9276 121.081 15.1473 123.47 12.8734C126.014 9.11111 127.066 4.84755 126.575 0.217054L126.825 0.191214C127.321 4.88372 126.254 9.2093 123.655 13.0439C121.286 15.3023 119.698 18.0413 118.922 21.1938C118.872 22.9302 119.493 24.3669 120.144 25.8915C120.845 27.5194 121.571 29.2041 121.416 31.3282C121.286 33.137 120.545 34.8062 119.823 36.4238C119.037 38.1809 118.226 40.0052 118.176 42.0465C118.005 48.9199 122.423 58.3618 126.66 63.7571L126.469 63.9121Z" fill="black"/>
<path d="M115.947 63.9121C112.551 59.0284 110.278 54.1602 107.874 49.0026C107.178 47.509 106.456 45.9587 105.7 44.3979C102.7 38.2067 103.161 35.1628 103.997 29.6486C104.123 28.8372 104.253 27.969 104.383 27.0336C104.553 25.8088 104.573 24.4755 104.588 23.1835C104.618 20.9199 104.653 18.5788 105.475 16.615C106.692 13.7106 108.5 11.4729 110.418 9.10078C112.521 6.49096 114.7 3.79845 116.012 0.144703L116.248 0.232558C114.92 3.92765 112.732 6.64083 110.613 9.26615C108.71 11.6227 106.912 13.8501 105.71 16.7183C104.909 18.6305 104.874 20.9457 104.844 23.1886C104.824 24.491 104.809 25.8346 104.633 27.0749C104.503 28.0155 104.373 28.8837 104.248 29.6951C103.416 35.1628 102.961 38.1705 105.925 44.2894C106.682 45.8501 107.403 47.3954 108.099 48.8941C110.498 54.0362 112.767 58.8992 116.147 63.7623L115.947 63.9121Z" fill="black"/>
<path d="M105.425 63.9173C103.867 61.509 102.134 59.0853 100.296 56.522C92.7687 46.0052 84.2346 34.0879 87.5651 20.9664C89.3831 13.8036 93.8355 10.1809 98.5533 6.34625C100.862 4.47028 103.246 2.5323 105.47 0.0775194L105.655 0.25323C103.416 2.71835 101.022 4.66667 98.7086 6.5478C94.0258 10.3566 89.6035 13.9535 87.8105 21.0284C84.51 34.031 93.0091 45.8966 100.502 56.3669C102.34 58.9354 104.077 61.3592 105.635 63.7726L105.425 63.9173Z" fill="black"/>
<path d="M94.9072 63.9225C92.6835 60.1912 89.4532 56.2791 86.0275 52.1395C77.1478 41.3902 67.0861 29.2041 71.8841 16.186C74.7739 8.34108 82.1361 5.35917 89.2529 2.47028C91.2512 1.65891 93.1343 0.894057 94.9373 0.0258398L95.0424 0.258398C93.2344 1.13178 91.3463 1.89664 89.343 2.71318C82.2763 5.5814 74.9692 8.54263 72.1144 16.2791C67.3666 29.1525 77.3782 41.2765 86.2128 51.969C89.6435 56.1189 92.8789 60.0413 95.1126 63.7881L94.9072 63.9225Z" fill="black"/>
<path d="M84.3898 63.9225C82.0008 58.9509 77.5785 54.062 72.8958 48.8786C63.3499 38.3152 53.4736 27.3953 59.2481 14.1705C63.1145 5.31783 72.6654 2.94057 81.0943 0.842377C82.2412 0.55814 83.328 0.284238 84.3998 0L84.4649 0.25323C83.3931 0.537468 82.3063 0.811369 81.1544 1.09561C72.7806 3.17829 63.2898 5.54522 59.4785 14.2791C53.7741 27.3437 63.5903 38.2016 73.0811 48.7028C77.7788 53.8966 82.2112 58.801 84.6152 63.8036L84.3898 63.9225Z" fill="black"/>
<path d="M73.8423 63.9277C71.6137 60.1964 68.2981 56.2636 64.7823 52.1034C55.6221 41.2558 45.245 28.9561 50.5488 15.4729C54.1748 6.2584 64.4768 2.98191 72.7605 0.351421L73.8474 0.00516796L73.9225 0.25323L72.8357 0.599483C64.607 3.21447 54.3651 6.47028 50.7841 15.5711C45.5404 28.9096 55.8625 41.1421 64.9776 51.9328C68.4985 56.1034 71.824 60.0413 74.0627 63.7933L73.8423 63.9277Z" fill="black"/>
<path d="M63.2999 63.9432C61.7273 61.814 60.0244 59.7003 58.2215 57.4574C49.4269 46.522 39.4553 34.1292 44.7141 18.7804C48.0546 9.03876 56.3984 3.63824 63.2898 0.0206718L63.405 0.25323C56.5537 3.84496 48.2599 9.2093 44.9495 18.8682C39.7358 34.0775 49.6573 46.4083 58.4118 57.292C60.2148 59.5349 61.9226 61.6537 63.5002 63.7881L63.2999 63.9432Z" fill="black"/>
<path d="M52.7624 63.9535C51.2048 62.2326 49.6673 60.7442 48.1798 59.3023C43.5471 54.8165 39.5455 50.9406 38.1832 42.9819C37.0564 36.4238 38.2884 30.3307 40.4771 23.2041L40.6323 22.708C43.1315 14.5581 45.9662 5.323 52.7474 0.0516796L52.8976 0.258398C46.1815 5.4832 43.3618 14.677 40.8727 22.7855L40.7174 23.2817C38.5388 30.3773 37.3168 36.4341 38.4286 42.9406C39.7809 50.8114 43.7525 54.6615 48.3501 59.1163C49.8426 60.5633 51.3851 62.0569 52.9427 63.783L52.7624 63.9535Z" fill="black"/>
<path d="M42.225 63.9638C41.2834 63.1266 40.3318 62.3204 39.4053 61.5452C33.2701 56.3669 27.9663 51.8915 30.185 42.0052C30.796 39.2817 32.1332 36.7959 33.4204 34.3928C34.4671 32.4444 35.5539 30.4238 36.235 28.2997C37.417 24.6202 37.7225 20.5995 38.018 16.708C38.4537 10.9716 38.9094 5.03876 42.1749 0.0826873L42.3852 0.22739C39.1599 5.13178 38.7091 11.0284 38.2734 16.7287C37.9729 20.6305 37.6674 24.6667 36.4804 28.3773C35.7893 30.5271 34.7025 32.553 33.6457 34.5168C32.3636 36.9044 31.0364 39.3695 30.4354 42.062C28.2568 51.7881 33.5005 56.2171 39.5706 61.3437C40.4921 62.124 41.4487 62.9302 42.3952 63.7674L42.225 63.9638Z" fill="black"/>
<path d="M31.6875 63.969C31.2267 63.6021 30.766 63.2403 30.3052 62.8837C23.7844 57.7829 17.6192 52.9664 22.9831 42.9922C24.0398 41.0284 25.5023 39.5607 26.9146 38.1395C28.7226 36.3256 30.4304 34.6098 31.3469 31.9535C33.1249 26.801 32.4438 20.8889 31.7777 15.1731C31.1917 10.1395 30.5907 4.9354 31.6174 0.139535L31.8628 0.196382C30.8461 4.9509 31.4471 10.1292 32.0281 15.1421C32.6942 20.8889 33.3803 26.832 31.5823 32.0413C30.6458 34.7545 28.8378 36.5685 27.0899 38.3256C25.6875 39.7364 24.2402 41.1886 23.1984 43.1214C17.9447 52.8992 24.0198 57.6537 30.4555 62.6822C30.9162 63.0439 31.377 63.4057 31.8378 63.7674L31.6875 63.969Z" fill="black"/>
<path d="M21.125 63.9432L20.7444 63.4212C16.4072 57.447 12.9815 52.7287 16.6075 44.6563C17.4589 42.7545 18.736 41.3023 19.9731 39.9018C21.5557 38.1034 23.0532 36.4031 23.7443 33.8295C25.2819 28.1344 23.9797 21.0904 22.7277 14.2791C21.8011 9.23514 20.9196 4.47545 21.0799 0.170543L21.3303 0.180879C21.1701 4.45995 22.0465 9.20413 22.9731 14.2326C24.2351 21.0749 25.5373 28.1499 23.9847 33.9018C23.2736 36.5375 21.6909 38.3359 20.1534 40.0775C18.9314 41.4677 17.6643 42.9044 16.8279 44.77C13.262 52.7028 16.6476 57.3695 20.9347 63.2713L21.3153 63.7933L21.125 63.9432Z" fill="black"/>
<path d="M10.5575 63.8811C10.3972 62.3773 10.2019 60.9664 10.0166 59.6021C9.36552 54.8631 8.79958 50.77 10.0466 45.4625C10.4273 43.8295 10.9682 42.2739 11.489 40.77C12.2603 38.5426 13.0616 36.2326 13.3221 33.7158C13.9832 27.292 12.9815 20.3876 12.0149 13.7054C11.3638 9.2093 10.6927 4.56331 10.5475 0.175711L10.7979 0.165375C10.9381 4.53747 11.6092 9.1783 12.2603 13.6641C13.2319 20.3618 14.2336 27.2868 13.5725 33.7416C13.312 36.2946 12.5057 38.615 11.7294 40.8579C11.2086 42.3566 10.6727 43.9018 10.292 45.5194C9.06001 50.7804 9.62094 54.8475 10.267 59.5607C10.4573 60.9251 10.6477 62.3359 10.8079 63.845L10.5575 63.8811Z" fill="black"/>
</svg>
