<svg width="69" height="62" viewBox="0 0 69 62" fill="none" xmlns="http://www.w3.org/2000/svg">
<path d="M29.7132 52.85C29.2637 52.5629 28.7392 52.2228 28.0253 51.7567C27.8434 51.6354 26.2458 50.5792 24.2636 49.0776C23.0354 48.1498 23.0354 48.1498 20.6792 46.1941C20.1324 45.7424 19.4193 45.1128 18.9032 44.6295C17.9478 43.7375 16.5651 42.4342 15.5852 41.4344C14.9377 40.7749 12.6654 38.4116 10.5791 35.7572C10.1183 35.1709 9.25392 34.0552 8.65444 33.1906C7.86582 32.0618 6.97665 30.6843 6.50092 29.9347C6.41051 29.8001 6.32611 29.6642 6.24171 29.5283C5.39398 28.0697 4.74317 26.8957 4.30577 26.0373C3.90136 25.2409 3.33603 24.0549 2.96779 23.1126C2.63935 22.2623 2.08379 20.8416 1.78257 19.7781C1.5769 19.0524 1.32981 18.0747 1.16756 17.3459C1.06692 16.9024 0.979775 16.3241 0.908778 15.8585L0.901579 15.8129C0.792846 15.0978 0.714679 14.2536 0.707013 13.6646C0.694376 12.8315 0.677512 11.6882 0.82769 10.7951C0.96743 9.96714 1.13445 9.0233 1.37894 8.32368C1.54678 7.84156 1.80158 7.21514 2.01363 6.76126C2.14783 6.47802 2.35528 6.12882 2.52457 5.84748L2.59062 5.73593C2.5976 5.72501 3.22459 4.67012 4.34614 3.62872C4.79355 3.21241 5.40922 2.76008 5.58848 2.63372C5.78906 2.49022 6.04139 2.33878 6.28907 2.19462C6.39741 2.13057 6.50575 2.06652 6.59974 2.00869C7.02203 1.74545 7.61513 1.49905 8.09348 1.30235L8.1365 1.28371C8.38169 1.18407 8.68368 1.08483 8.97365 0.988178C9.10313 0.947882 9.22292 0.906521 9.3367 0.866446C9.75479 0.723501 10.2993 0.610045 10.774 0.508389C10.9122 0.478792 11.0481 0.452836 11.1706 0.42346C12.3627 0.165037 14.7565 0.0232044 16.2985 0.126599C17.1808 0.182747 18.1868 0.256397 18.9487 0.379164C19.6281 0.485055 20.588 0.647125 21.2935 0.785113C21.868 0.900893 22.6241 1.08146 23.1399 1.2161C24.8366 1.654 26.4641 2.17583 28.254 2.85771C29.03 3.15343 30.1388 3.6104 31.0773 4.02527C31.7042 4.30264 32.7103 4.76587 33.4767 5.15791C34.5785 5.7232 36.1271 6.56358 37.4217 7.2981C38.0543 7.65595 38.8585 8.15929 39.5609 8.60273C40.1343 8.96382 40.9426 9.48512 41.5232 9.8918C42.6352 10.6686 44.1357 11.7549 45.259 12.5953C47.1136 14.0205 48.9212 15.5438 50.6311 17.1226C50.7548 17.2375 50.891 17.3655 51.0345 17.4981C51.3215 17.7634 51.6224 18.0478 51.8652 18.2848C52.4673 18.8692 53.1475 19.5342 53.644 20.0562C54.1714 20.6032 55.7798 22.276 57.0535 23.8068C58.0317 24.9798 58.8767 25.996 60.3817 28.0743C61.2118 29.2193 62.1817 30.7303 62.8133 31.764C63.1549 32.3255 63.6391 33.1676 64.1028 34.0172C64.4209 34.5995 64.8055 35.378 65.0093 35.79C65.5546 36.9018 66.1635 38.377 66.5179 39.3003C66.7897 40.0119 67.1598 41.0732 67.3719 41.9107C67.4055 42.0449 67.4455 42.1935 67.4832 42.3457C67.5822 42.7266 67.6959 43.1579 67.7687 43.5068C67.904 44.1722 68.0886 45.069 68.1601 45.745L68.1966 46.0859C68.2361 46.4545 68.2805 46.8723 68.2962 47.2052C68.3197 47.7531 68.3389 48.5597 68.3119 49.1625C68.2429 50.7326 67.9874 51.7582 67.8765 52.1998C67.5594 53.468 67.1545 54.3214 66.8756 54.8556C66.6428 55.3013 66.2918 55.8509 66.0399 56.2128C65.8615 56.4678 65.6035 56.7744 65.3946 57.0203L65.3171 57.1091C65.2303 57.2125 64.433 58.1279 63.1836 58.9391C62.5881 59.3274 61.7897 59.7246 61.557 59.8373C61.3219 59.9536 61.0286 60.0635 60.7414 60.1722C60.6132 60.2185 60.4888 60.2671 60.3787 60.3095C59.8763 60.5114 59.1917 60.6737 58.6416 60.8041L58.5371 60.8296C58.256 60.896 57.9094 60.9514 57.5749 61.0042C57.4316 61.0255 57.292 61.0491 57.1705 61.0688C56.658 61.1566 55.9262 61.2222 54.9941 61.2521C54.3313 61.2746 52.3151 61.345 49.171 60.818C45.96 60.2739 42.9307 59.2259 42.9026 59.2131C41.659 58.7724 40.0973 58.1799 39.0144 57.7394C38.167 57.393 37.0741 56.8949 36.2958 56.5054L36.04 56.378C35.3962 56.0539 34.5897 55.6516 33.981 55.3295C33.3687 55.0051 32.5596 54.5499 32.0091 54.2342C31.0601 53.6896 30.4981 53.3512 29.7132 52.85ZM7.93001 31.7339C8.23015 32.1818 8.53669 32.644 8.83507 33.0703C9.43318 33.9288 10.2939 35.0421 10.7546 35.6285C12.8299 38.2759 15.0995 40.6272 15.7409 41.2879C16.7208 42.2878 18.1022 43.585 19.0539 44.4746C19.5663 44.9556 20.2781 45.5793 20.8212 46.0286C23.1701 47.9796 23.1701 47.9796 24.3983 48.9074C26.3768 50.4067 27.967 51.4581 28.1415 51.5747C30.1012 52.8518 30.6294 53.1942 32.1253 54.0522C32.6759 54.3679 33.4812 54.8207 34.0899 55.1428C34.6949 55.4626 35.4954 55.8662 36.1452 56.1889L36.4009 56.3164C37.1756 56.7035 38.2611 57.1969 39.1048 57.5409C40.1817 57.9827 41.7397 58.5729 42.9797 59.0112C43.0101 59.0204 46.02 60.0663 49.2139 60.6046C52.3327 61.1307 54.3368 61.0629 54.9959 61.038C55.9183 61.007 56.6418 60.9464 57.1446 60.8576C57.2685 60.8342 57.4117 60.8129 57.5513 60.7893C57.8799 60.7378 58.2204 60.6837 58.4955 60.6185L58.6 60.593C59.1441 60.4639 59.8204 60.3066 60.3084 60.1109C60.4208 60.0649 60.5453 60.0162 60.6734 59.9699C60.9523 59.8662 61.2419 59.7539 61.4687 59.6425C61.6954 59.5311 62.4854 59.1389 63.0703 58.7591C64.2984 57.9651 65.072 57.0705 65.1565 56.9707L65.234 56.8818C65.4405 56.6397 65.6963 56.3367 65.8677 56.0926C66.1172 55.7344 66.4613 55.1957 66.6894 54.7572C66.9613 54.2339 67.3593 53.3915 67.6698 52.1498C67.776 51.7155 68.0306 50.6995 68.0991 49.1546C68.1251 48.5615 68.1086 47.7669 68.0851 47.219C68.0708 46.8921 68.024 46.4779 67.9882 46.1117L67.9517 45.7707C67.8853 45.1031 67.6997 44.2159 67.5672 43.5625C67.4966 43.21 67.3807 42.7824 67.2793 42.405C67.2379 42.2505 67.2016 42.1043 67.1643 41.9678C66.9512 41.1399 66.5899 40.0893 66.3195 39.3836C65.965 38.4604 65.3611 36.9935 64.8172 35.8877C64.6134 35.4757 64.2288 34.6972 63.9121 34.1209C63.452 33.2736 62.9716 32.4339 62.6276 31.876C61.9974 30.8483 61.0312 29.3397 60.2025 28.2006C58.6988 26.1283 57.8612 25.1169 56.8829 23.9438C55.6129 22.4154 54.0096 20.7509 53.4822 20.204C52.987 19.6879 52.3068 19.0229 51.7085 18.441C51.4656 18.2039 51.1625 17.9232 50.8791 17.6602C50.7356 17.5276 50.5994 17.3996 50.4757 17.2847C48.7671 15.7119 46.9669 14.1933 45.1197 12.7728C44.0001 11.9348 42.5033 10.8508 41.3913 10.074C40.8107 9.66734 40.0134 9.15308 39.4363 8.78964C38.7339 8.3462 37.9297 7.84287 37.3045 7.48972C36.0099 6.7552 34.465 5.91718 33.3669 5.35425C32.6065 4.96092 31.6077 4.5024 30.9845 4.22738C30.0497 3.81486 28.9469 3.3566 28.1746 3.06324C26.3921 2.38606 24.7743 1.86529 23.0812 1.42974C22.5655 1.2951 21.813 1.1169 21.2446 0.999832C20.5414 0.858204 19.5888 0.700838 18.9095 0.594946C18.1572 0.473246 17.1586 0.404306 16.2786 0.344519C14.756 0.243256 12.3863 0.379941 11.2122 0.634504C11.086 0.661527 10.9538 0.689838 10.8119 0.717081C10.3395 0.815097 9.80334 0.92363 9.40096 1.06635C9.28951 1.10279 9.16372 1.14543 9.03424 1.18572C8.74659 1.27874 8.45061 1.37669 8.21143 1.47504L8.16841 1.49368C7.72242 1.6803 7.11499 1.93292 6.70568 2.18395C6.61169 2.24179 6.50335 2.30584 6.39269 2.37352C6.15101 2.5164 5.90101 2.6642 5.70877 2.80277C5.53552 2.92785 4.92449 3.3729 4.48774 3.78063C3.38983 4.80126 2.77542 5.82832 2.76845 5.83924L2.70007 5.95443C2.5331 6.23213 2.3303 6.57405 2.20075 6.85002C1.99335 7.29662 1.73718 7.91705 1.574 8.39189C1.31732 9.13497 1.13254 10.2366 1.03398 10.8295C0.885727 11.7034 0.905881 12.8333 0.915797 13.6544C0.925788 14.2399 1.00124 15.0721 1.11094 15.7775L1.11813 15.8231C1.19145 16.285 1.27859 16.8634 1.37419 17.2985C1.53508 18.0213 1.78081 18.993 1.9828 19.7164C2.2813 20.7679 2.83317 22.1862 3.16026 23.0305C3.52714 23.9668 4.08741 25.1446 4.49047 25.9349C4.92418 26.7909 5.57732 27.9613 6.41768 29.4152C6.47685 29.5094 6.56494 29.6476 6.67552 29.8156C7.74705 31.4274 9.40637 33.061 11.5183 34.5789C9.21631 30.6132 8.70051 27.3271 10.1084 25.5205C11.4192 23.8416 14.2541 23.5613 18.0827 24.7304C26.4327 27.2752 37.2343 35.972 42.1639 44.1164C44.6835 48.2774 45.2895 51.7391 43.8301 53.6101C42.5193 55.289 39.6844 55.5693 35.8558 54.4002C27.5118 51.854 16.7203 43.1739 11.7824 35.0345C10.2744 33.9843 8.97124 32.8651 7.93001 31.7339ZM11.97 34.9032L11.9713 34.9092C16.8757 43.0118 27.6267 51.6661 35.9329 54.1983C39.6701 55.3398 42.4223 55.0835 43.6746 53.48C45.0778 51.6807 44.4645 48.3118 41.9939 44.2282C37.0859 36.1232 26.3386 27.4714 18.0324 24.9391C14.2951 23.7976 11.543 24.0539 10.2907 25.6574C8.88746 27.4567 9.50081 30.8256 11.97 34.9032Z" fill="black"/>
<path d="M29.7132 52.85C29.2637 52.5629 28.7392 52.2228 28.0253 51.7567C27.8434 51.6354 26.2458 50.5792 24.2636 49.0776C23.0354 48.1498 23.0354 48.1498 20.6792 46.1941C20.1324 45.7424 19.4193 45.1128 18.9032 44.6295C17.9478 43.7375 16.5651 42.4342 15.5852 41.4344C14.9377 40.7749 12.6654 38.4116 10.5791 35.7572C10.1183 35.1709 9.25392 34.0552 8.65444 33.1906C7.86582 32.0618 6.97665 30.6843 6.50092 29.9347C6.41051 29.8001 6.32611 29.6642 6.24171 29.5283C5.39398 28.0697 4.74317 26.8957 4.30577 26.0373C3.90136 25.2409 3.33603 24.0549 2.96779 23.1126C2.63935 22.2623 2.08379 20.8416 1.78257 19.7781C1.5769 19.0524 1.32981 18.0747 1.16756 17.3459C1.06692 16.9024 0.979775 16.3241 0.908778 15.8585L0.901579 15.8129C0.792846 15.0978 0.714679 14.2536 0.707013 13.6646C0.694376 12.8315 0.677512 11.6882 0.82769 10.7951C0.96743 9.96714 1.13445 9.0233 1.37894 8.32368C1.54678 7.84156 1.80158 7.21514 2.01363 6.76126C2.14783 6.47802 2.35528 6.12882 2.52457 5.84748L2.59062 5.73593C2.5976 5.72501 3.22459 4.67012 4.34614 3.62872C4.79355 3.21241 5.40922 2.76008 5.58848 2.63372C5.78906 2.49022 6.04139 2.33878 6.28907 2.19462C6.39741 2.13057 6.50575 2.06652 6.59974 2.00869C7.02203 1.74545 7.61513 1.49905 8.09348 1.30235L8.1365 1.28371C8.38169 1.18407 8.68368 1.08483 8.97365 0.988178C9.10313 0.947882 9.22292 0.906521 9.3367 0.866446C9.75479 0.723501 10.2993 0.610045 10.774 0.508389C10.9122 0.478792 11.0481 0.452836 11.1706 0.42346C12.3627 0.165037 14.7565 0.0232044 16.2985 0.126599C17.1808 0.182747 18.1868 0.256397 18.9487 0.379164C19.6281 0.485055 20.588 0.647125 21.2935 0.785113C21.868 0.900893 22.6241 1.08146 23.1399 1.2161C24.8366 1.654 26.4641 2.17583 28.254 2.85771C29.03 3.15343 30.1388 3.6104 31.0773 4.02527C31.7042 4.30264 32.7103 4.76587 33.4767 5.15791C34.5785 5.7232 36.1271 6.56358 37.4217 7.2981C38.0543 7.65595 38.8585 8.15929 39.5609 8.60273C40.1343 8.96382 40.9426 9.48512 41.5232 9.8918C42.6352 10.6686 44.1357 11.7549 45.259 12.5953C47.1136 14.0205 48.9212 15.5438 50.6311 17.1226C50.7548 17.2375 50.891 17.3655 51.0345 17.4981C51.3215 17.7634 51.6224 18.0478 51.8652 18.2848C52.4673 18.8692 53.1475 19.5342 53.644 20.0562C54.1714 20.6032 55.7798 22.276 57.0535 23.8068C58.0317 24.9798 58.8767 25.996 60.3817 28.0743C61.2118 29.2193 62.1817 30.7303 62.8133 31.764C63.1549 32.3255 63.6391 33.1676 64.1028 34.0172C64.4209 34.5995 64.8055 35.378 65.0093 35.79C65.5546 36.9018 66.1635 38.377 66.5179 39.3003C66.7897 40.0119 67.1598 41.0732 67.3719 41.9107C67.4055 42.0449 67.4455 42.1935 67.4832 42.3457C67.5822 42.7266 67.6959 43.1579 67.7687 43.5068C67.904 44.1722 68.0886 45.069 68.1601 45.745L68.1966 46.0859C68.2361 46.4545 68.2805 46.8723 68.2962 47.2052C68.3197 47.7531 68.3389 48.5597 68.3119 49.1625C68.2429 50.7326 67.9874 51.7582 67.8765 52.1998C67.5594 53.468 67.1545 54.3214 66.8756 54.8556C66.6428 55.3013 66.2918 55.8509 66.0399 56.2128C65.8615 56.4678 65.6035 56.7744 65.3946 57.0203L65.3171 57.1091C65.2303 57.2125 64.433 58.1279 63.1836 58.9391C62.5881 59.3274 61.7897 59.7246 61.557 59.8373C61.3219 59.9536 61.0286 60.0635 60.7414 60.1722C60.6132 60.2185 60.4888 60.2671 60.3787 60.3095C59.8763 60.5114 59.1917 60.6737 58.6416 60.8041L58.5371 60.8296C58.256 60.896 57.9094 60.9514 57.5749 61.0042C57.4316 61.0255 57.292 61.0491 57.1705 61.0688C56.658 61.1566 55.9262 61.2222 54.9941 61.2521C54.3313 61.2746 52.3151 61.345 49.171 60.818C45.96 60.2739 42.9307 59.2259 42.9026 59.2131C41.659 58.7724 40.0973 58.1799 39.0144 57.7394C38.167 57.393 37.0741 56.8949 36.2958 56.5054L36.04 56.378C35.3962 56.0539 34.5897 55.6516 33.981 55.3295C33.3687 55.0051 32.5596 54.5499 32.0091 54.2342C31.0601 53.6896 30.4981 53.3512 29.7132 52.85ZM7.93001 31.7339C8.23015 32.1818 8.53669 32.644 8.83507 33.0703C9.43318 33.9288 10.2939 35.0421 10.7546 35.6285C12.8299 38.2759 15.0995 40.6272 15.7409 41.2879C16.7208 42.2878 18.1022 43.585 19.0539 44.4746C19.5663 44.9556 20.2781 45.5793 20.8212 46.0286C23.1701 47.9796 23.1701 47.9796 24.3983 48.9074C26.3768 50.4067 27.967 51.4581 28.1415 51.5747C30.1012 52.8518 30.6294 53.1942 32.1253 54.0522C32.6759 54.3679 33.4812 54.8207 34.0899 55.1428C34.6949 55.4626 35.4954 55.8662 36.1452 56.1889L36.4009 56.3164C37.1756 56.7035 38.2611 57.1969 39.1048 57.5409C40.1817 57.9827 41.7397 58.5729 42.9797 59.0112C43.0101 59.0204 46.02 60.0663 49.2139 60.6046C52.3327 61.1307 54.3368 61.0629 54.9959 61.038C55.9183 61.007 56.6418 60.9464 57.1446 60.8576C57.2685 60.8342 57.4117 60.8129 57.5513 60.7893C57.8799 60.7378 58.2204 60.6837 58.4955 60.6185L58.6 60.593C59.1441 60.4639 59.8204 60.3066 60.3084 60.1109C60.4208 60.0649 60.5453 60.0162 60.6734 59.9699C60.9523 59.8662 61.2419 59.7539 61.4687 59.6425C61.6954 59.5311 62.4854 59.1389 63.0703 58.7591C64.2984 57.9651 65.072 57.0705 65.1565 56.9707L65.234 56.8818C65.4405 56.6397 65.6963 56.3367 65.8677 56.0926C66.1172 55.7344 66.4613 55.1957 66.6894 54.7572C66.9613 54.2339 67.3593 53.3915 67.6698 52.1498C67.776 51.7155 68.0306 50.6995 68.0991 49.1546C68.1251 48.5615 68.1086 47.7669 68.0851 47.219C68.0708 46.8921 68.024 46.4779 67.9882 46.1117L67.9517 45.7707C67.8853 45.1031 67.6997 44.2159 67.5672 43.5625C67.4966 43.21 67.3807 42.7824 67.2793 42.405C67.2379 42.2505 67.2016 42.1043 67.1643 41.9678C66.9512 41.1399 66.5899 40.0893 66.3195 39.3836C65.965 38.4604 65.3611 36.9935 64.8172 35.8877C64.6134 35.4757 64.2288 34.6972 63.9121 34.1209C63.452 33.2736 62.9716 32.4339 62.6276 31.876C61.9974 30.8483 61.0312 29.3397 60.2025 28.2006C58.6988 26.1283 57.8612 25.1169 56.8829 23.9438C55.6129 22.4154 54.0096 20.7509 53.4822 20.204C52.987 19.6879 52.3068 19.0229 51.7085 18.441C51.4656 18.2039 51.1625 17.9232 50.8791 17.6602C50.7356 17.5276 50.5994 17.3996 50.4757 17.2847C48.7671 15.7119 46.9669 14.1933 45.1197 12.7728C44.0001 11.9348 42.5033 10.8508 41.3913 10.074C40.8107 9.66734 40.0134 9.15308 39.4363 8.78964C38.7339 8.3462 37.9297 7.84287 37.3045 7.48972C36.0099 6.7552 34.465 5.91718 33.3669 5.35425C32.6065 4.96092 31.6077 4.5024 30.9845 4.22738C30.0497 3.81486 28.9469 3.3566 28.1746 3.06324C26.3921 2.38606 24.7743 1.86529 23.0812 1.42974C22.5655 1.2951 21.813 1.1169 21.2446 0.999832C20.5414 0.858204 19.5888 0.700838 18.9095 0.594946C18.1572 0.473246 17.1586 0.404306 16.2786 0.344519C14.756 0.243256 12.3863 0.379941 11.2122 0.634504C11.086 0.661527 10.9538 0.689838 10.8119 0.717081C10.3395 0.815097 9.80334 0.92363 9.40096 1.06635C9.28951 1.10279 9.16372 1.14543 9.03424 1.18572C8.74659 1.27874 8.45061 1.37669 8.21143 1.47504L8.16841 1.49368C7.72242 1.6803 7.11499 1.93292 6.70568 2.18395C6.61169 2.24179 6.50335 2.30584 6.39269 2.37352C6.15101 2.5164 5.90101 2.6642 5.70877 2.80277C5.53552 2.92785 4.92449 3.3729 4.48774 3.78063C3.38983 4.80126 2.77542 5.82832 2.76845 5.83924L2.70007 5.95443C2.5331 6.23213 2.3303 6.57405 2.20075 6.85002C1.99335 7.29662 1.73718 7.91705 1.574 8.39189C1.31732 9.13497 1.13254 10.2366 1.03398 10.8295C0.885727 11.7034 0.905881 12.8333 0.915797 13.6544C0.925788 14.2399 1.00124 15.0721 1.11094 15.7775L1.11813 15.8231C1.19145 16.285 1.27859 16.8634 1.37419 17.2985C1.53508 18.0213 1.78081 18.993 1.9828 19.7164C2.2813 20.7679 2.83317 22.1862 3.16026 23.0305C3.52714 23.9668 4.08741 25.1446 4.49047 25.9349C4.92418 26.7909 5.57732 27.9613 6.41768 29.4152C6.47685 29.5094 6.56494 29.6476 6.67552 29.8156C7.74705 31.4274 9.40637 33.061 11.5183 34.5789C9.21631 30.6132 8.70051 27.3271 10.1084 25.5205C11.4192 23.8416 14.2541 23.5613 18.0827 24.7304C26.4327 27.2752 37.2343 35.972 42.1639 44.1164C44.6835 48.2774 45.2895 51.7391 43.8301 53.6101C42.5193 55.289 39.6844 55.5693 35.8558 54.4002C27.5118 51.854 16.7203 43.1739 11.7824 35.0345C10.2744 33.9843 8.97124 32.8651 7.93001 31.7339ZM11.97 34.9032L11.9713 34.9092C16.8757 43.0118 27.6267 51.6661 35.9329 54.1983C39.6701 55.3398 42.4223 55.0835 43.6746 53.48C45.0778 51.6807 44.4645 48.3118 41.9939 44.2282C37.0859 36.1232 26.3386 27.4714 18.0324 24.9391C14.2951 23.7976 11.543 24.0539 10.2907 25.6574C8.88746 27.4567 9.50081 30.8256 11.97 34.9032Z" fill="black"/>
<path d="M27.3868 50.3035C21.2225 46.3668 15.1514 40.5783 11.7934 35.0415C6.35814 31.263 3.98677 26.9916 5.45627 23.6103L5.53837 23.4168L5.64567 23.598C14.6675 38.5014 34.4389 54.4177 49.7141 59.0741L49.9479 59.1466L49.7396 59.2698C46.5097 61.2245 41.3113 59.4061 35.8327 54.3957C33.1853 53.5864 30.2755 52.1483 27.3868 50.3035ZM5.58068 23.8947C4.32785 27.148 6.68845 31.2331 11.9415 34.8747L11.9713 34.9092C16.8757 43.0118 27.6267 51.6661 35.9329 54.1983L35.9596 54.2052L35.9794 54.2229C41.2652 59.0641 46.2649 60.9093 49.4263 59.208C34.1971 54.4632 14.6315 38.7039 5.58068 23.8947Z" fill="black"/>
<path d="M29.2771 52.5663C20.6331 47.046 12.1201 38.9243 7.4249 31.1602L7.61057 31.0482C14.4911 42.4165 29.5666 54.5498 41.218 58.1065L41.158 58.3141C37.4184 57.1763 33.3338 55.1571 29.2771 52.5663Z" fill="black"/>
<path d="M31.5772 53.0667C21.1682 46.4193 10.9217 36.6422 5.26195 27.2936L5.44762 27.1816C13.7379 40.8747 31.9021 55.4982 45.939 59.7788L45.879 59.9865C41.377 58.6128 36.4592 56.1845 31.5772 53.0667Z" fill="black"/>
<path d="M16.9512 42.7475C16.7154 42.5969 16.5389 42.4021 16.423 42.1693C16.0044 41.3383 16.3895 40.0367 17.5312 38.4034L17.7107 38.5284C16.6133 40.0925 16.2359 41.317 16.6188 42.074C16.8784 42.5934 17.497 42.8757 18.4491 42.92L18.4412 43.1354C17.8086 43.1106 17.3123 42.9781 16.9512 42.7475Z" fill="black"/>
<path d="M28.7737 52.25C28.0699 51.8005 27.4575 51.0456 26.959 50.0149L27.1561 49.9256C27.8473 51.3612 28.7686 52.2416 29.8267 52.4612C30.9114 52.6877 32.1372 52.2304 33.3772 51.1416L33.5215 51.3055C32.2296 52.4431 30.9354 52.9182 29.7837 52.6747C29.4312 52.593 29.0942 52.4547 28.7737 52.25Z" fill="black"/>
<path d="M39.9718 57.6129C38.6269 56.7541 37.2354 55.6758 35.824 54.385L35.4739 54.0641L35.9305 54.202C39.6678 55.3435 42.4199 55.0872 43.6722 53.4836C45.0755 51.6844 44.4621 48.3154 41.9916 44.2319L41.8857 44.0566L42.0865 44.067C50.3015 44.4759 57.3641 43.1395 60.9872 40.4878L61.0845 40.4167L61.1488 40.5192C65.7592 48.1318 66.8727 54.454 64.2148 57.8605C61.8342 60.9059 56.685 61.4147 49.7113 59.2978C47.3052 60.718 43.8332 60.079 39.9718 57.6129ZM36.3221 54.5391C41.5974 59.2506 46.5547 60.951 49.6323 59.0885L49.674 59.0639L49.7215 59.0788C56.6297 61.1846 61.7131 60.7056 64.0375 57.7319C66.6276 54.4154 65.5283 48.2252 61.019 40.7386C57.361 43.3475 50.3814 44.6756 42.2809 44.2988C44.714 48.384 45.282 51.7752 43.8425 53.6231C42.5842 55.228 39.9256 55.5491 36.3221 54.5391Z" fill="black"/>
<path d="M41.152 58.3154L41.212 58.1077C46.469 59.7125 50.341 59.3515 52.1083 57.0878C54.0886 54.5554 53.2327 49.8119 49.7596 44.0735L49.9453 43.9615C53.4674 49.7773 54.3221 54.6122 52.2832 57.22C50.4574 59.5591 46.5063 59.9464 41.152 58.3154Z" fill="black"/>
<path d="M45.8753 59.9841L45.9353 59.7765C52.2785 61.7111 56.9484 61.2703 59.082 58.5386C61.472 55.4786 60.4414 49.7576 56.2534 42.84L56.439 42.728C60.6775 49.729 61.7031 55.539 59.2546 58.6744C57.0625 61.4815 52.3098 61.9463 45.8753 59.9841Z" fill="black"/>
<path d="M42.2484 54.706L42.3609 54.5217C50.6622 59.6283 57.7831 61.5472 61.4062 59.659L61.5102 59.8536C57.8191 61.7751 50.6183 59.8514 42.2484 54.706Z" fill="black"/>
<path d="M44.4887 51.0842L44.5621 50.88C53.8697 54.3541 61.6918 55.1424 65.4809 52.9862L65.5896 53.1734C61.7445 55.3605 53.8549 54.5803 44.4887 51.0842Z" fill="black"/>
<path d="M42.0219 44.282L41.9916 44.2319C37.0835 36.1269 26.3362 27.475 18.0301 24.9428L17.9729 24.9267L17.957 24.8704C15.335 16.5241 14.9125 9.09556 16.8232 5.00701L16.861 4.92351L16.9523 4.95109C32.2751 9.62248 52.0971 25.5814 61.1464 40.5228L61.1969 40.6063L61.1186 40.6639C57.4575 43.3426 50.3421 44.6966 42.0787 44.2824L42.0219 44.282ZM26.5762 28.8376C32.7294 32.7672 38.788 38.5426 42.147 44.0698C50.2747 44.4691 57.2727 43.1528 60.909 40.5454C51.88 25.6938 32.2172 9.86738 16.9823 5.18033C15.1456 9.23417 15.5793 16.5315 18.1473 24.7511C20.7997 25.5688 23.6985 26.9998 26.5762 28.8376Z" fill="black"/>
<path d="M49.7596 44.0735C42.8767 32.7088 27.8036 20.5718 16.1522 17.0152L16.2122 16.8076C27.9097 20.3731 43.0372 32.5551 49.9453 43.9615L49.7596 44.0735Z" fill="black"/>
<path d="M56.2534 42.84C47.963 29.1468 29.7988 14.5234 15.762 10.2427L15.822 10.0351C29.9026 14.3283 48.1235 28.9931 56.439 42.728L56.2534 42.84Z" fill="black"/>
<path d="M35.5763 36.2045L35.4616 36.0186C40.7257 32.7956 45.756 28.9313 48.9133 25.685L49.0706 25.8367C45.9003 29.0953 40.857 32.9717 35.5763 36.2045Z" fill="black"/>
<path d="M26.7956 29.1519C28.1808 22.7753 30.5275 16.7208 33.0724 12.9552L33.2543 13.0765C30.7234 16.8202 28.3856 22.8446 27.0106 29.197L26.7956 29.1519Z" fill="black"/>
<path d="M12.2337 35.3432L11.8155 35.0557C6.39033 31.2938 4.01335 27.0394 5.43711 23.6647C0.850143 16.0722 -0.255558 9.77028 2.40134 6.37346C4.78663 3.32073 9.95281 2.81772 16.9523 4.95109L17.0741 4.98786L17.0214 5.10282C15.1349 9.14534 15.5632 16.5161 18.1646 24.8134L18.2275 25.0073L18.0315 24.9487C14.2942 23.8072 11.542 24.0635 10.2897 25.6671C8.88649 27.4663 9.49984 30.8353 11.9704 34.9188L12.2337 35.3432ZM16.7729 5.11833C9.92734 3.05254 4.88774 3.54416 2.57627 6.50567C-0.0290949 9.83805 1.09537 16.0699 5.65303 23.6027L5.6833 23.6528L5.66045 23.7048C4.27208 26.9023 6.46014 30.9489 11.527 34.5896C9.22503 30.6239 8.70924 27.3378 10.1171 25.5312C11.4057 23.8791 14.164 23.5806 17.8954 24.6825C15.3546 16.4853 14.9393 9.19979 16.7729 5.11833Z" fill="black"/>
<path d="M7.42258 31.1638C3.90044 25.348 3.04576 20.5131 5.08464 17.9053C6.91041 15.5662 10.8615 15.1789 16.2135 16.8136L16.1535 17.0212C10.8965 15.4165 7.02452 15.7775 5.25725 18.0412C3.27688 20.5736 4.13286 25.3171 7.60592 31.0555L7.42258 31.1638Z" fill="black"/>
<path d="M5.25827 27.2912C1.01978 20.2902 -0.00579089 14.4802 2.44265 11.3448C4.63478 8.53768 9.38746 8.07295 15.822 10.0351L15.762 10.2427C9.4188 8.30818 4.74887 8.74891 2.61525 11.4807C0.22532 14.5407 1.25589 20.2617 5.44393 27.1792L5.25827 27.2912Z" fill="black"/>
<path d="M11.5661 24.5862C6.04412 16.0942 3.60712 8.56294 5.05298 4.43884L5.2591 4.51409C3.83937 8.5729 6.26373 16.0346 11.7505 24.4682L11.5661 24.5862Z" fill="black"/>
<path d="M9.36262 28.2316C2.82965 21.3795 -0.30486 14.981 0.978287 11.1117L1.18304 11.1809C-0.0743659 14.9693 3.03879 21.2875 9.51706 28.0791L9.36262 28.2316Z" fill="black"/>
<path d="M34.1019 51.7531C22.7755 44.5198 11.6275 33.8799 5.46601 23.7088L5.43574 23.6587L5.45859 23.6067C6.93138 20.212 12.2174 17.8075 19.6022 17.1688L19.6697 17.1606L19.705 17.219C26.4897 28.4288 41.3617 40.4015 52.8499 43.9051L52.9144 43.9258L52.9234 43.993C54.1876 51.5901 52.9982 57.3026 49.7419 59.2661L49.7003 59.2908L49.6528 59.2758C44.7698 57.7921 39.4151 55.1462 34.1019 51.7531ZM5.68195 23.6468C14.7066 38.5213 34.42 54.3903 49.6763 59.0602C52.8124 57.1224 53.9495 51.5405 52.7267 44.098C41.222 40.5633 26.3721 28.6048 19.556 17.3955C12.3282 18.032 7.1515 20.3628 5.68195 23.6468Z" fill="black"/>
<path d="M36.6735 48.6605C25.3839 41.4507 14.2681 30.8417 8.13049 20.7062L8.31615 20.5942C17.3114 35.4498 37.0174 51.3141 52.2428 55.9593L52.1828 56.1669C47.3022 54.6795 41.9682 52.0418 36.6735 48.6605Z" fill="black"/>
<path d="M39.0582 44.1059C28.7266 37.508 18.5556 27.7995 12.9376 18.5237L13.1232 18.4117C21.3493 32.0023 39.3814 46.5158 53.3099 50.7631L53.2499 50.9708C48.7894 49.6134 43.9071 47.2026 39.0582 44.1059Z" fill="black"/>
<path d="M17.7084 38.532L17.5288 38.4071C19.4728 35.6311 23.6188 31.8683 28.625 28.3423L28.7504 28.5197C23.7691 32.0309 19.6408 35.7742 17.7084 38.532Z" fill="black"/>
<path d="M33.5224 51.2959L33.3781 51.132C35.9336 48.8849 38.5956 43.9694 40.4982 37.9847L40.7053 38.0504C38.7891 44.0724 36.1039 49.0244 33.5224 51.2959Z" fill="black"/>
<path d="M49.4276 59.214L49.636 59.0909C52.8112 57.1729 53.9628 51.5439 52.7154 44.0344L52.6856 43.8617L52.8512 43.911C57.2753 45.2605 60.7018 45.1992 62.6955 43.7668C62.1876 42.7507 61.6065 41.7031 60.9571 40.6325L60.9066 40.549L60.9849 40.4914C62.6221 39.2925 63.5821 37.7892 63.7484 36.148C63.7812 35.8205 63.7849 35.4898 63.7595 35.1559C63.199 33.5886 62.3704 31.8808 61.2733 30.0734L61.4466 29.9483C62.973 31.6763 63.8346 33.4462 63.9725 35.1228C65.1787 38.5219 65.1305 41.2941 63.7635 43.0448C63.5318 43.3426 63.2665 43.6037 62.9667 43.8375C65.9976 49.9597 66.4724 54.967 64.2064 57.8654C61.8212 60.9181 56.655 61.4211 49.6555 59.2878L49.4276 59.214ZM52.9568 44.1681C54.1472 51.5233 53.0277 57.0857 49.9479 59.1466C56.7405 61.1734 61.74 60.6716 64.0399 57.7283C66.2496 54.9016 65.7772 49.988 62.7972 43.965C60.7684 45.3955 57.3473 45.4808 52.9568 44.1681ZM61.1969 40.6063C61.8224 41.6412 62.3797 42.653 62.8734 43.6344C63.1459 43.419 63.3838 43.1764 63.5969 42.9076C64.8353 41.3259 64.9482 38.8666 63.9967 35.8403C63.9935 35.951 63.9842 36.0629 63.9713 36.1725C63.7998 37.8463 62.8369 39.3784 61.1969 40.6063ZM62.2068 31.2434C62.7439 32.2218 63.204 33.1665 63.5775 34.0763C63.3353 33.1478 62.8761 32.1935 62.2068 31.2434Z" fill="black"/>
<path d="M52.1828 56.1669L52.2428 55.9593C59.1279 58.0606 64.1956 57.5818 66.5118 54.613C69.1065 51.2892 67.9874 45.0813 63.4412 37.5712L63.6269 37.4591C68.2222 45.0467 69.3376 51.3497 66.683 54.7429C64.3097 57.793 59.1593 58.2958 52.1828 56.1669Z" fill="black"/>
<path d="M53.2536 50.9731L53.3136 50.7655C59.6093 52.6851 64.2455 52.2484 66.3615 49.5361C68.7314 46.4993 67.7104 40.8202 63.5526 33.9528L63.7383 33.8407C67.9428 40.7893 68.9649 46.5561 66.5327 49.666C64.3572 52.4633 59.6383 52.9239 53.2536 50.9731Z" fill="black"/>
<path d="M61.5126 59.8499L61.4086 59.6554C65.034 57.7636 65.0995 52.097 61.5804 44.4895L61.7775 44.4001C65.3493 52.1283 65.2514 57.9024 61.5126 59.8499Z" fill="black"/>
<path d="M65.5896 53.1734L65.4809 52.9862C66.8008 52.2354 67.6367 51.1295 67.9619 49.7025C68.5609 47.0668 67.419 43.5345 64.6533 39.4828L64.8339 39.3624C67.6299 43.4642 68.7854 47.0564 68.1746 49.7512C67.8353 51.2409 66.9654 52.3918 65.5896 53.1734Z" fill="black"/>
<path d="M61.0213 40.735L60.9571 40.6325C51.9353 25.7291 32.1676 9.81518 16.8886 5.15639L16.7669 5.11962L16.8196 5.00465C17.6459 3.23153 18.8879 2.08263 20.5018 1.58622C22.6349 0.934621 25.3 1.48877 28.2115 3.18415C39.7191 6.68989 54.6477 18.7039 61.4576 29.9553C63.2975 32.0373 64.1677 34.1918 63.9639 36.1678C63.7896 37.8705 62.8007 39.427 61.1149 40.6615L61.0213 40.735ZM32.5128 12.4748C43.7987 19.6823 54.9142 30.2757 61.0845 40.4167C62.6676 39.2293 63.5896 37.753 63.7567 36.1431C63.9523 34.2285 63.1017 32.1326 61.2918 30.0851C54.491 18.86 39.6226 6.88965 28.1345 3.38605C25.2524 1.70949 22.6455 1.16173 20.5748 1.79682C19.052 2.2643 17.8745 3.33654 17.0764 4.98421C21.9344 6.48273 27.2439 9.10997 32.5128 12.4748Z" fill="black"/>
<path d="M63.4449 37.5735C54.4497 22.7179 34.7474 6.8559 19.5183 2.20844L19.5782 2.00078C34.8535 6.65721 54.6138 22.5665 63.6306 37.4615L63.4449 37.5735Z" fill="black"/>
<path d="M63.554 33.9588C55.3279 20.3681 37.2957 5.85459 23.3673 1.6073L23.4273 1.39964C37.4032 5.66189 55.486 20.218 63.7373 33.8504L63.554 33.9588Z" fill="black"/>
<path d="M49.0743 25.8391L48.917 25.6874C51.3266 23.2138 52.6345 21.1334 52.5943 19.8317C52.5825 19.4603 52.4591 19.1663 52.2263 18.9459L52.3734 18.7887C52.6531 19.0493 52.7984 19.3984 52.8105 19.8263C52.8509 21.1844 51.5239 23.3193 49.0743 25.8391Z" fill="black"/>
<path d="M33.2543 13.0765L33.0724 12.9552C34.7868 10.4169 36.5604 8.93104 38.1969 8.65916C39.02 8.52376 39.7748 8.69832 40.4469 9.18908L40.3197 9.36401C39.6967 8.90984 38.9978 8.74531 38.2362 8.87384C36.6815 9.13134 34.9129 10.6255 33.2543 13.0765Z" fill="black"/>
<path d="M5.57699 23.8924L5.46969 23.7111C0.859263 16.0985 -0.254195 9.77627 2.40367 6.36982C4.769 3.34021 9.87798 2.82117 16.7988 4.89913C16.9235 4.67133 17.0606 4.45658 17.2199 4.25595C17.2222 4.25231 17.2269 4.24502 17.2292 4.24138C18.0361 2.89659 19.1349 2.00461 20.5078 1.58493C22.6409 0.933329 25.306 1.48749 28.2175 3.18287L29.0196 3.64897L28.1331 3.38005C22.9651 1.80653 19.1592 2.15336 17.4074 4.36033C17.2707 4.5907 17.1403 4.83542 17.0224 5.09319L16.9846 5.17668L16.9104 5.15489C15.6223 7.78099 16.6089 12.1006 19.7087 17.2214L19.7995 17.3716L19.6295 17.386C12.3278 18.0164 7.10711 20.3755 5.66742 23.6939L5.57699 23.8924ZM16.6986 5.09654C9.89128 3.06027 4.88077 3.55508 2.57627 6.50567C-0.00681455 9.81128 1.07962 15.9728 5.54942 23.4238C7.12328 20.1552 12.2773 17.8356 19.4336 17.1892C16.373 12.0883 15.4118 7.76951 16.6986 5.09654ZM27.2646 2.91249C24.7389 1.61209 22.4393 1.22475 20.5748 1.79682C19.6204 2.08918 18.8049 2.61886 18.1292 3.37624C20.0323 1.9884 23.195 1.82014 27.2646 2.91249Z" fill="black"/>
<path d="M8.13049 20.7062C3.53519 13.1186 2.42348 6.81804 5.07437 3.4225C7.45268 0.38069 12.6032 -0.122097 19.5796 2.00679L19.5196 2.21443C12.6345 0.113127 7.56678 0.591908 5.24698 3.55835C2.65227 6.88216 3.7713 13.0901 8.31751 20.6002L8.13049 20.7062Z" fill="black"/>
<path d="M12.9376 18.5237C8.73302 11.5751 7.71095 5.80831 10.1431 2.69841C12.3213 -0.0868831 17.0366 -0.549889 23.4236 1.39729L23.3636 1.60495C17.0679 -0.314654 12.4317 0.121993 10.3157 2.83427C7.94575 5.87116 8.96681 11.5502 13.1246 18.4176L12.9376 18.5237Z" fill="black"/>
<path d="M5.05298 4.43884C5.5499 3.01903 6.49776 1.98968 7.86728 1.38849C10.4976 0.234517 14.4668 0.704228 19.3506 2.74707L19.2699 2.9466C14.5119 0.958511 10.4989 0.476189 7.96296 1.58795C6.6508 2.16429 5.73918 3.14502 5.26142 4.51045L5.05298 4.43884Z" fill="black"/>
<path d="M0.975961 11.1153C2.27498 7.20489 7.98883 5.94991 16.2648 7.76595L16.2182 7.97703C8.06494 6.18812 2.44277 7.38891 1.18071 11.1846L0.975961 11.1153Z" fill="black"/>
<path d="M29.7132 52.85C29.2637 52.5629 28.7392 52.2228 28.0253 51.7567C27.8434 51.6354 26.2458 50.5792 24.2636 49.0776C23.0354 48.1498 23.0354 48.1498 20.6792 46.1941C20.1324 45.7424 19.4193 45.1128 18.9032 44.6295C17.9478 43.7375 16.5651 42.4342 15.5852 41.4344C14.9377 40.7749 12.6654 38.4116 10.5791 35.7572C10.1183 35.1709 9.25392 34.0552 8.65444 33.1906C7.86582 32.0618 6.97665 30.6843 6.50092 29.9347C6.41051 29.8001 6.32611 29.6642 6.24171 29.5283C5.39398 28.0697 4.74317 26.8957 4.30577 26.0373C3.90136 25.2409 3.33603 24.0549 2.96779 23.1126C2.63935 22.2623 2.08379 20.8416 1.78257 19.7781C1.5769 19.0524 1.32981 18.0747 1.16756 17.3459C1.06692 16.9024 0.979775 16.3241 0.908778 15.8585L0.901579 15.8129C0.792846 15.0978 0.714679 14.2536 0.707013 13.6646C0.694376 12.8315 0.677512 11.6882 0.82769 10.7951C0.96743 9.96714 1.13445 9.0233 1.37894 8.32368C1.54678 7.84156 1.80158 7.21514 2.01363 6.76126C2.14783 6.47802 2.35528 6.12882 2.52457 5.84748L2.59062 5.73593C2.5976 5.72501 3.22459 4.67012 4.34614 3.62872C4.79355 3.21241 5.40922 2.76008 5.58848 2.63372C5.78906 2.49022 6.04139 2.33878 6.28907 2.19462C6.39741 2.13057 6.50575 2.06652 6.59974 2.00869C7.02203 1.74545 7.61513 1.49905 8.09348 1.30235L8.1365 1.28371C8.38169 1.18407 8.68368 1.08483 8.97365 0.988178C9.10313 0.947882 9.22292 0.906521 9.3367 0.866446C9.75479 0.723501 10.2993 0.610045 10.774 0.508389C10.9122 0.478792 11.0481 0.452836 11.1706 0.42346C12.3627 0.165037 14.7565 0.0232044 16.2985 0.126599C17.1808 0.182747 18.1868 0.256397 18.9487 0.379164C19.6281 0.485055 20.588 0.647125 21.2935 0.785113C21.868 0.900893 22.6241 1.08146 23.1399 1.2161C24.8366 1.654 26.4641 2.17583 28.254 2.85771C29.03 3.15343 30.1388 3.6104 31.0773 4.02527C31.7042 4.30264 32.7103 4.76587 33.4767 5.15791C34.5785 5.7232 36.1271 6.56358 37.4217 7.2981C38.0543 7.65595 38.8585 8.15929 39.5609 8.60273C40.1343 8.96382 40.9426 9.48512 41.5232 9.8918C42.6352 10.6686 44.1357 11.7549 45.259 12.5953C47.1136 14.0205 48.9212 15.5438 50.6311 17.1226C50.7548 17.2375 50.891 17.3655 51.0345 17.4981C51.3215 17.7634 51.6224 18.0478 51.8652 18.2848C52.4673 18.8692 53.1475 19.5342 53.644 20.0562C54.1714 20.6032 55.7798 22.276 57.0535 23.8068C58.0317 24.9798 58.8767 25.996 60.3817 28.0743C61.2118 29.2193 62.1817 30.7303 62.8133 31.764C63.1549 32.3255 63.6391 33.1676 64.1028 34.0172C64.4209 34.5995 64.8055 35.378 65.0093 35.79C65.5546 36.9018 66.1635 38.377 66.5179 39.3003C66.7897 40.0119 67.1598 41.0732 67.3719 41.9107C67.4055 42.0449 67.4455 42.1935 67.4832 42.3457C67.5822 42.7266 67.6959 43.1579 67.7687 43.5068C67.904 44.1722 68.0886 45.069 68.1601 45.745L68.1966 46.0859C68.2361 46.4545 68.2805 46.8723 68.2962 47.2052C68.3197 47.7531 68.3389 48.5597 68.3119 49.1625C68.2429 50.7326 67.9874 51.7582 67.8765 52.1998C67.5594 53.468 67.1545 54.3214 66.8756 54.8556C66.6428 55.3013 66.2918 55.8509 66.0399 56.2128C65.8615 56.4678 65.6035 56.7744 65.3946 57.0203L65.3171 57.1091C65.2303 57.2125 64.433 58.1279 63.1836 58.9391C62.5881 59.3274 61.7897 59.7246 61.557 59.8373C61.3219 59.9536 61.0286 60.0635 60.7414 60.1722C60.6132 60.2185 60.4888 60.2671 60.3787 60.3095C59.8763 60.5114 59.1917 60.6737 58.6416 60.8041L58.5371 60.8296C58.256 60.896 57.9094 60.9514 57.5749 61.0042C57.4316 61.0255 57.292 61.0491 57.1705 61.0688C56.658 61.1566 55.9262 61.2222 54.9941 61.2521C54.3313 61.2746 52.3151 61.345 49.171 60.818C45.96 60.2739 42.9307 59.2259 42.9026 59.2131C41.659 58.7724 40.0973 58.1799 39.0144 57.7394C38.167 57.393 37.0741 56.8949 36.2958 56.5054L36.04 56.378C35.3962 56.0539 34.5897 55.6516 33.981 55.3295C33.3687 55.0051 32.5596 54.5499 32.0091 54.2342C31.0601 53.6896 30.4981 53.3512 29.7132 52.85ZM7.93001 31.7339C8.23015 32.1818 8.53669 32.644 8.83507 33.0703C9.43318 33.9288 10.2939 35.0421 10.7546 35.6285C12.8299 38.2759 15.0995 40.6272 15.7409 41.2879C16.7208 42.2878 18.1022 43.585 19.0539 44.4746C19.5663 44.9556 20.2781 45.5793 20.8212 46.0286C23.1701 47.9796 23.1701 47.9796 24.3983 48.9074C26.3768 50.4067 27.967 51.4581 28.1415 51.5747C30.1012 52.8518 30.6294 53.1942 32.1253 54.0522C32.6759 54.3679 33.4812 54.8207 34.0899 55.1428C34.6949 55.4626 35.4954 55.8662 36.1452 56.1889L36.4009 56.3164C37.1756 56.7035 38.2611 57.1969 39.1048 57.5409C40.1817 57.9827 41.7397 58.5729 42.9797 59.0112C43.0101 59.0204 46.02 60.0663 49.2139 60.6046C52.3327 61.1307 54.3368 61.0629 54.9959 61.038C55.9183 61.007 56.6418 60.9464 57.1446 60.8576C57.2685 60.8342 57.4117 60.8129 57.5513 60.7893C57.8799 60.7378 58.2204 60.6837 58.4955 60.6185L58.6 60.593C59.1441 60.4639 59.8204 60.3066 60.3084 60.1109C60.4208 60.0649 60.5453 60.0162 60.6734 59.9699C60.9523 59.8662 61.2419 59.7539 61.4687 59.6425C61.6954 59.5311 62.4854 59.1389 63.0703 58.7591C64.2984 57.9651 65.072 57.0705 65.1565 56.9707L65.234 56.8818C65.4405 56.6397 65.6963 56.3367 65.8677 56.0926C66.1172 55.7344 66.4613 55.1957 66.6894 54.7572C66.9613 54.2339 67.3593 53.3915 67.6698 52.1498C67.776 51.7155 68.0306 50.6995 68.0991 49.1546C68.1251 48.5615 68.1086 47.7669 68.0851 47.219C68.0708 46.8921 68.024 46.4779 67.9882 46.1117L67.9517 45.7707C67.8853 45.1031 67.6997 44.2159 67.5672 43.5625C67.4966 43.21 67.3807 42.7824 67.2793 42.405C67.2379 42.2505 67.2016 42.1043 67.1643 41.9678C66.9512 41.1399 66.5899 40.0893 66.3195 39.3836C65.965 38.4604 65.3611 36.9935 64.8172 35.8877C64.6134 35.4757 64.2288 34.6972 63.9121 34.1209C63.452 33.2736 62.9716 32.4339 62.6276 31.876C61.9974 30.8483 61.0312 29.3397 60.2025 28.2006C58.6988 26.1283 57.8612 25.1169 56.8829 23.9438C55.6129 22.4154 54.0096 20.7509 53.4822 20.204C52.987 19.6879 52.3068 19.0229 51.7085 18.441C51.4656 18.2039 51.1625 17.9232 50.8791 17.6602C50.7356 17.5276 50.5994 17.3996 50.4757 17.2847C48.7671 15.7119 46.9669 14.1933 45.1197 12.7728C44.0001 11.9348 42.5033 10.8508 41.3913 10.074C40.8107 9.66734 40.0134 9.15308 39.4363 8.78964C38.7339 8.3462 37.9297 7.84287 37.3045 7.48972C36.0099 6.7552 34.465 5.91718 33.3669 5.35425C32.6065 4.96092 31.6077 4.5024 30.9845 4.22738C30.0497 3.81486 28.9469 3.3566 28.1746 3.06324C26.3921 2.38606 24.7743 1.86529 23.0812 1.42974C22.5655 1.2951 21.813 1.1169 21.2446 0.999832C20.5414 0.858204 19.5888 0.700838 18.9095 0.594946C18.1572 0.473246 17.1586 0.404306 16.2786 0.344519C14.756 0.243256 12.3863 0.379941 11.2122 0.634504C11.086 0.661527 10.9538 0.689838 10.8119 0.717081C10.3395 0.815097 9.80334 0.92363 9.40096 1.06635C9.28951 1.10279 9.16372 1.14543 9.03424 1.18572C8.74659 1.27874 8.45061 1.37669 8.21143 1.47504L8.16841 1.49368C7.72242 1.6803 7.11499 1.93292 6.70568 2.18395C6.61169 2.24179 6.50335 2.30584 6.39269 2.37352C6.15101 2.5164 5.90101 2.6642 5.70877 2.80277C5.53552 2.92785 4.92449 3.3729 4.48774 3.78063C3.38983 4.80126 2.77542 5.82832 2.76845 5.83924L2.70007 5.95443C2.5331 6.23213 2.3303 6.57405 2.20075 6.85002C1.99335 7.29662 1.73718 7.91705 1.574 8.39189C1.31732 9.13497 1.13254 10.2366 1.03398 10.8295C0.885727 11.7034 0.905881 12.8333 0.915797 13.6544C0.925788 14.2399 1.00124 15.0721 1.11094 15.7775L1.11813 15.8231C1.19145 16.285 1.27859 16.8634 1.37419 17.2985C1.53508 18.0213 1.78081 18.993 1.9828 19.7164C2.2813 20.7679 2.83317 22.1862 3.16026 23.0305C3.52714 23.9668 4.08741 25.1446 4.49047 25.9349C4.92418 26.7909 5.57732 27.9613 6.41768 29.4152C6.47685 29.5094 6.56494 29.6476 6.67552 29.8156C7.74705 31.4274 9.40637 33.061 11.5183 34.5789C9.21631 30.6132 8.70051 27.3271 10.1084 25.5205C11.4192 23.8416 14.2541 23.5613 18.0827 24.7304C26.4327 27.2752 37.2343 35.972 42.1639 44.1164C44.6835 48.2774 45.2895 51.7391 43.8301 53.6101C42.5193 55.289 39.6844 55.5693 35.8558 54.4002C27.5118 51.854 16.7203 43.1739 11.7824 35.0345C10.2744 33.9843 8.97124 32.8651 7.93001 31.7339ZM11.97 34.9032L11.9713 34.9092C16.8757 43.0118 27.6267 51.6661 35.9329 54.1983C39.6701 55.3398 42.4223 55.0835 43.6746 53.48C45.0778 51.6807 44.4645 48.3118 41.9939 44.2282C37.0859 36.1232 26.3386 27.4714 18.0324 24.9391C14.2951 23.7976 11.543 24.0539 10.2907 25.6574C8.88746 27.4567 9.50081 30.8256 11.97 34.9032Z" fill="black"/>
<path d="M29.7132 52.85C29.2637 52.5629 28.7392 52.2228 28.0253 51.7567C27.8434 51.6354 26.2458 50.5792 24.2636 49.0776C23.0354 48.1498 23.0354 48.1498 20.6792 46.1941C20.1324 45.7424 19.4193 45.1128 18.9032 44.6295C17.9478 43.7375 16.5651 42.4342 15.5852 41.4344C14.9377 40.7749 12.6654 38.4116 10.5791 35.7572C10.1183 35.1709 9.25392 34.0552 8.65444 33.1906C7.86582 32.0618 6.97665 30.6843 6.50092 29.9347C6.41051 29.8001 6.32611 29.6642 6.24171 29.5283C5.39398 28.0697 4.74317 26.8957 4.30577 26.0373C3.90136 25.2409 3.33603 24.0549 2.96779 23.1126C2.63935 22.2623 2.08379 20.8416 1.78257 19.7781C1.5769 19.0524 1.32981 18.0747 1.16756 17.3459C1.06692 16.9024 0.979775 16.3241 0.908778 15.8585L0.901579 15.8129C0.792846 15.0978 0.714679 14.2536 0.707013 13.6646C0.694376 12.8315 0.677512 11.6882 0.82769 10.7951C0.96743 9.96714 1.13445 9.0233 1.37894 8.32368C1.54678 7.84156 1.80158 7.21514 2.01363 6.76126C2.14783 6.47802 2.35528 6.12882 2.52457 5.84748L2.59062 5.73593C2.5976 5.72501 3.22459 4.67012 4.34614 3.62872C4.79355 3.21241 5.40922 2.76008 5.58848 2.63372C5.78906 2.49022 6.04139 2.33878 6.28907 2.19462C6.39741 2.13057 6.50575 2.06652 6.59974 2.00869C7.02203 1.74545 7.61513 1.49905 8.09348 1.30235L8.1365 1.28371C8.38169 1.18407 8.68368 1.08483 8.97365 0.988178C9.10313 0.947882 9.22292 0.906521 9.3367 0.866446C9.75479 0.723501 10.2993 0.610045 10.774 0.508389C10.9122 0.478792 11.0481 0.452836 11.1706 0.42346C12.3627 0.165037 14.7565 0.0232044 16.2985 0.126599C17.1808 0.182747 18.1868 0.256397 18.9487 0.379164C19.6281 0.485055 20.588 0.647125 21.2935 0.785113C21.868 0.900893 22.6241 1.08146 23.1399 1.2161C24.8366 1.654 26.4641 2.17583 28.254 2.85771C29.03 3.15343 30.1388 3.6104 31.0773 4.02527C31.7042 4.30264 32.7103 4.76587 33.4767 5.15791C34.5785 5.7232 36.1271 6.56358 37.4217 7.2981C38.0543 7.65595 38.8585 8.15929 39.5609 8.60273C40.1343 8.96382 40.9426 9.48512 41.5232 9.8918C42.6352 10.6686 44.1357 11.7549 45.259 12.5953C47.1136 14.0205 48.9212 15.5438 50.6311 17.1226C50.7548 17.2375 50.891 17.3655 51.0345 17.4981C51.3215 17.7634 51.6224 18.0478 51.8652 18.2848C52.4673 18.8692 53.1475 19.5342 53.644 20.0562C54.1714 20.6032 55.7798 22.276 57.0535 23.8068C58.0317 24.9798 58.8767 25.996 60.3817 28.0743C61.2118 29.2193 62.1817 30.7303 62.8133 31.764C63.1549 32.3255 63.6391 33.1676 64.1028 34.0172C64.4209 34.5995 64.8055 35.378 65.0093 35.79C65.5546 36.9018 66.1635 38.377 66.5179 39.3003C66.7897 40.0119 67.1598 41.0732 67.3719 41.9107C67.4055 42.0449 67.4455 42.1935 67.4832 42.3457C67.5822 42.7266 67.6959 43.1579 67.7687 43.5068C67.904 44.1722 68.0886 45.069 68.1601 45.745L68.1966 46.0859C68.2361 46.4545 68.2805 46.8723 68.2962 47.2052C68.3197 47.7531 68.3389 48.5597 68.3119 49.1625C68.2429 50.7326 67.9874 51.7582 67.8765 52.1998C67.5594 53.468 67.1545 54.3214 66.8756 54.8556C66.6428 55.3013 66.2918 55.8509 66.0399 56.2128C65.8615 56.4678 65.6035 56.7744 65.3946 57.0203L65.3171 57.1091C65.2303 57.2125 64.433 58.1279 63.1836 58.9391C62.5881 59.3274 61.7897 59.7246 61.557 59.8373C61.3219 59.9536 61.0286 60.0635 60.7414 60.1722C60.6132 60.2185 60.4888 60.2671 60.3787 60.3095C59.8763 60.5114 59.1917 60.6737 58.6416 60.8041L58.5371 60.8296C58.256 60.896 57.9094 60.9514 57.5749 61.0042C57.4316 61.0255 57.292 61.0491 57.1705 61.0688C56.658 61.1566 55.9262 61.2222 54.9941 61.2521C54.3313 61.2746 52.3151 61.345 49.171 60.818C45.96 60.2739 42.9307 59.2259 42.9026 59.2131C41.659 58.7724 40.0973 58.1799 39.0144 57.7394C38.167 57.393 37.0741 56.8949 36.2958 56.5054L36.04 56.378C35.3962 56.0539 34.5897 55.6516 33.981 55.3295C33.3687 55.0051 32.5596 54.5499 32.0091 54.2342C31.0601 53.6896 30.4981 53.3512 29.7132 52.85ZM7.93001 31.7339C8.23015 32.1818 8.53669 32.644 8.83507 33.0703C9.43318 33.9288 10.2939 35.0421 10.7546 35.6285C12.8299 38.2759 15.0995 40.6272 15.7409 41.2879C16.7208 42.2878 18.1022 43.585 19.0539 44.4746C19.5663 44.9556 20.2781 45.5793 20.8212 46.0286C23.1701 47.9796 23.1701 47.9796 24.3983 48.9074C26.3768 50.4067 27.967 51.4581 28.1415 51.5747C30.1012 52.8518 30.6294 53.1942 32.1253 54.0522C32.6759 54.3679 33.4812 54.8207 34.0899 55.1428C34.6949 55.4626 35.4954 55.8662 36.1452 56.1889L36.4009 56.3164C37.1756 56.7035 38.2611 57.1969 39.1048 57.5409C40.1817 57.9827 41.7397 58.5729 42.9797 59.0112C43.0101 59.0204 46.02 60.0663 49.2139 60.6046C52.3327 61.1307 54.3368 61.0629 54.9959 61.038C55.9183 61.007 56.6418 60.9464 57.1446 60.8576C57.2685 60.8342 57.4117 60.8129 57.5513 60.7893C57.8799 60.7378 58.2204 60.6837 58.4955 60.6185L58.6 60.593C59.1441 60.4639 59.8204 60.3066 60.3084 60.1109C60.4208 60.0649 60.5453 60.0162 60.6734 59.9699C60.9523 59.8662 61.2419 59.7539 61.4687 59.6425C61.6954 59.5311 62.4854 59.1389 63.0703 58.7591C64.2984 57.9651 65.072 57.0705 65.1565 56.9707L65.234 56.8818C65.4405 56.6397 65.6963 56.3367 65.8677 56.0926C66.1172 55.7344 66.4613 55.1957 66.6894 54.7572C66.9613 54.2339 67.3593 53.3915 67.6698 52.1498C67.776 51.7155 68.0306 50.6995 68.0991 49.1546C68.1251 48.5615 68.1086 47.7669 68.0851 47.219C68.0708 46.8921 68.024 46.4779 67.9882 46.1117L67.9517 45.7707C67.8853 45.1031 67.6997 44.2159 67.5672 43.5625C67.4966 43.21 67.3807 42.7824 67.2793 42.405C67.2379 42.2505 67.2016 42.1043 67.1643 41.9678C66.9512 41.1399 66.5899 40.0893 66.3195 39.3836C65.965 38.4604 65.3611 36.9935 64.8172 35.8877C64.6134 35.4757 64.2288 34.6972 63.9121 34.1209C63.452 33.2736 62.9716 32.4339 62.6276 31.876C61.9974 30.8483 61.0312 29.3397 60.2025 28.2006C58.6988 26.1283 57.8612 25.1169 56.8829 23.9438C55.6129 22.4154 54.0096 20.7509 53.4822 20.204C52.987 19.6879 52.3068 19.0229 51.7085 18.441C51.4656 18.2039 51.1625 17.9232 50.8791 17.6602C50.7356 17.5276 50.5994 17.3996 50.4757 17.2847C48.7671 15.7119 46.9669 14.1933 45.1197 12.7728C44.0001 11.9348 42.5033 10.8508 41.3913 10.074C40.8107 9.66734 40.0134 9.15308 39.4363 8.78964C38.7339 8.3462 37.9297 7.84287 37.3045 7.48972C36.0099 6.7552 34.465 5.91718 33.3669 5.35425C32.6065 4.96092 31.6077 4.5024 30.9845 4.22738C30.0497 3.81486 28.9469 3.3566 28.1746 3.06324C26.3921 2.38606 24.7743 1.86529 23.0812 1.42974C22.5655 1.2951 21.813 1.1169 21.2446 0.999832C20.5414 0.858204 19.5888 0.700838 18.9095 0.594946C18.1572 0.473246 17.1586 0.404306 16.2786 0.344519C14.756 0.243256 12.3863 0.379941 11.2122 0.634504C11.086 0.661527 10.9538 0.689838 10.8119 0.717081C10.3395 0.815097 9.80334 0.92363 9.40096 1.06635C9.28951 1.10279 9.16372 1.14543 9.03424 1.18572C8.74659 1.27874 8.45061 1.37669 8.21143 1.47504L8.16841 1.49368C7.72242 1.6803 7.11499 1.93292 6.70568 2.18395C6.61169 2.24179 6.50335 2.30584 6.39269 2.37352C6.15101 2.5164 5.90101 2.6642 5.70877 2.80277C5.53552 2.92785 4.92449 3.3729 4.48774 3.78063C3.38983 4.80126 2.77542 5.82832 2.76845 5.83924L2.70007 5.95443C2.5331 6.23213 2.3303 6.57405 2.20075 6.85002C1.99335 7.29662 1.73718 7.91705 1.574 8.39189C1.31732 9.13497 1.13254 10.2366 1.03398 10.8295C0.885727 11.7034 0.905881 12.8333 0.915797 13.6544C0.925788 14.2399 1.00124 15.0721 1.11094 15.7775L1.11813 15.8231C1.19145 16.285 1.27859 16.8634 1.37419 17.2985C1.53508 18.0213 1.78081 18.993 1.9828 19.7164C2.2813 20.7679 2.83317 22.1862 3.16026 23.0305C3.52714 23.9668 4.08741 25.1446 4.49047 25.9349C4.92418 26.7909 5.57732 27.9613 6.41768 29.4152C6.47685 29.5094 6.56494 29.6476 6.67552 29.8156C7.74705 31.4274 9.40637 33.061 11.5183 34.5789C9.21631 30.6132 8.70051 27.3271 10.1084 25.5205C11.4192 23.8416 14.2541 23.5613 18.0827 24.7304C26.4327 27.2752 37.2343 35.972 42.1639 44.1164C44.6835 48.2774 45.2895 51.7391 43.8301 53.6101C42.5193 55.289 39.6844 55.5693 35.8558 54.4002C27.5118 51.854 16.7203 43.1739 11.7824 35.0345C10.2744 33.9843 8.97124 32.8651 7.93001 31.7339ZM11.97 34.9032L11.9713 34.9092C16.8757 43.0118 27.6267 51.6661 35.9329 54.1983C39.6701 55.3398 42.4223 55.0835 43.6746 53.48C45.0778 51.6807 44.4645 48.3118 41.9939 44.2282C37.0859 36.1232 26.3386 27.4714 18.0324 24.9391C14.2951 23.7976 11.543 24.0539 10.2907 25.6574C8.88746 27.4567 9.50081 30.8256 11.97 34.9032Z" fill="black"/>
</svg>
