<svg width="55" height="64" viewBox="0 0 55 64" fill="none" xmlns="http://www.w3.org/2000/svg">
<g filter="url(#filter0_d_1_175)">
<path d="M6.61269 34.3941C6.58997 34.3941 6.56725 34.3768 6.55589 34.3537L5.13595 29.4369L4.28967 24.5837L4 19.9035L4.23855 15.5062L5.05644 11.3801L6.70357 7.36933L8.85051 4.09728L11.3894 1.65622C11.395 1.65045 11.4007 1.65045 11.4007 1.64468L14.2122 0.253916C14.2406 0.242374 14.2747 0.253916 14.286 0.28277C14.2974 0.311624 14.286 0.346249 14.2576 0.357791L11.4518 1.74279L8.94139 4.1723L6.8058 7.42127L5.16435 11.4089L4.35214 15.5177L4.11359 19.9035L4.40326 24.5664L5.24387 29.4081L6.66381 34.319C6.67517 34.3479 6.65813 34.3825 6.62405 34.3883C6.62405 34.3941 6.61837 34.3941 6.61269 34.3941Z" fill="black"/>
<path d="M16.3762 40.8516C16.3705 40.8516 16.3648 40.8516 16.3592 40.8516C16.3308 40.8401 16.3137 40.8112 16.3194 40.7824L17.8927 35.1212L19.1877 31.3644C19.1877 31.3586 19.1934 31.3528 19.199 31.3413L23.6633 26.4707L28.6388 22.789L34.0005 19.9324L39.6462 18.1261C39.6746 18.1146 39.7086 18.1319 39.72 18.1608C39.7314 18.1896 39.7143 18.2242 39.6859 18.2358L34.0516 20.042L28.7069 22.8871L23.7485 26.5573L19.3013 31.4106L18.012 35.1558L16.4387 40.8112C16.4216 40.8343 16.3989 40.8516 16.3762 40.8516Z" fill="black"/>
<path d="M39.6632 18.2358C39.6518 18.2358 39.6405 18.23 39.6291 18.2242L14.2122 0.357791C14.1895 0.346249 14.1838 0.317395 14.1895 0.294312C14.1952 0.271228 14.2179 0.253916 14.2463 0.253916L50.9432 0C50.9716 0 50.9943 0.0230832 51 0.0519373C51 0.0807914 50.983 0.109645 50.9546 0.115416C44.6387 1.37345 41.9237 6.21517 40.7537 10.0528C39.4871 14.2193 39.72 18.1377 39.72 18.1723C39.72 18.1954 39.7086 18.2127 39.6916 18.2242C39.6859 18.2358 39.6746 18.2358 39.6632 18.2358ZM14.4224 0.369332L39.6007 18.0684C39.5723 17.3817 39.4928 13.8038 40.6458 10.0239C41.7874 6.26711 44.4058 1.55235 50.3866 0.121187L14.4224 0.369332Z" fill="black"/>
<path d="M34.0289 20.042C34.0175 20.042 34.0062 20.0363 33.9948 20.0305L11.395 1.74279C11.378 1.72547 11.3666 1.70239 11.378 1.67931C11.3837 1.65622 11.4007 1.63891 11.4348 1.63891L45.1385 2.12943C45.1669 2.12943 45.1896 2.15251 45.1953 2.18137C45.1953 2.21022 45.1782 2.23908 45.1498 2.24485C39.5439 3.36439 36.8347 8.12531 35.5511 11.9225C34.1595 16.0429 34.0914 19.9439 34.0914 19.9843C34.0914 20.0074 34.08 20.0247 34.0573 20.0363C34.0459 20.042 34.0346 20.042 34.0289 20.042ZM11.5995 1.7601L33.9778 19.8689C34.0005 19.188 34.1766 15.6274 35.4431 11.8879C36.6984 8.17148 39.3111 3.54328 44.6443 2.24485L11.5995 1.7601Z" fill="black"/>
<path d="M28.6729 22.8871C28.6615 22.8871 28.6445 22.8813 28.6331 22.8697L8.86187 4.1723C8.84483 4.15499 8.83915 4.1319 8.85051 4.10882C8.86187 4.08574 8.87891 4.0742 8.90731 4.0742L39.6178 5.30915C39.6462 5.30915 39.6689 5.33223 39.6746 5.36109C39.6746 5.38994 39.6575 5.4188 39.6291 5.42457C34.7275 6.40561 32.0239 11.08 30.6267 14.831C29.1045 18.9052 28.741 22.7947 28.741 22.8351C28.741 22.8582 28.724 22.8755 28.7069 22.8813C28.6899 22.8871 28.6785 22.8871 28.6729 22.8871ZM9.05498 4.19538L28.6331 22.7082C28.7069 22.0272 29.1329 18.4839 30.5131 14.7906C31.8819 11.1204 34.4889 6.57296 39.1747 5.40725L9.05498 4.19538Z" fill="black"/>
<path d="M23.7088 26.5631C23.6917 26.5631 23.6747 26.5573 23.669 26.5458L6.7206 7.43281C6.70356 7.4155 6.70356 7.39242 6.70924 7.36933C6.7206 7.34625 6.749 7.33471 6.76604 7.33471L34.4833 9.3141C34.5117 9.3141 34.5344 9.33718 34.5344 9.36603C34.5344 9.39489 34.5173 9.41797 34.4889 9.42374C30.2859 10.2605 27.5937 14.8599 26.0772 18.5647C24.4301 22.5927 23.7712 26.4707 23.7599 26.5054C23.7542 26.5284 23.7428 26.5458 23.7201 26.5515C23.7201 26.5631 23.7144 26.5631 23.7088 26.5631ZM6.89668 7.46167L23.6747 26.3842C23.7996 25.709 24.4812 22.183 25.975 18.5359C27.4574 14.9118 30.0587 10.4509 34.0914 9.4122L6.89668 7.46167Z" fill="black"/>
<path d="M19.2388 30.9777C19.2218 30.9777 19.2047 30.9662 19.1934 30.9547L5.06779 11.4262C5.05643 11.4089 5.05075 11.3858 5.06211 11.3627C5.07347 11.3454 5.09619 11.3339 5.11891 11.3339L29.8429 14.0635C29.8713 14.0693 29.894 14.0923 29.894 14.1212C29.894 14.15 29.877 14.1731 29.8486 14.1789C23.1465 15.5177 19.3297 30.7815 19.2899 30.9373C19.2842 30.9604 19.2672 30.9777 19.2445 30.9777C19.2445 30.9777 19.2445 30.9777 19.2388 30.9777ZM5.23819 11.4608L19.2161 30.7873C19.3921 30.1063 20.3293 26.6035 21.9367 23.0082C23.5327 19.4361 26.1227 15.0561 29.5078 14.1443L5.23819 11.4608Z" fill="black"/>
<path d="M15.5981 35.5136C15.5753 35.5136 15.5583 35.5021 15.5469 35.4847L4.24991 15.5408C4.23855 15.5235 4.23855 15.5004 4.24991 15.4773C4.26127 15.46 4.28399 15.4485 4.30671 15.4542L26.0375 18.9283C26.0659 18.934 26.0829 18.9571 26.0829 18.986C26.0829 19.0148 26.0659 19.0379 26.0375 19.0437C20.6758 20.1113 15.6946 35.3232 15.6435 35.4732C15.6378 35.4963 15.6151 35.5078 15.5981 35.5136C15.6037 35.5136 15.6037 35.5136 15.5981 35.5136ZM4.40894 15.587L15.5867 35.3116C15.8139 34.6249 17.0066 31.1451 18.7219 27.6018C21.1813 22.5177 23.544 19.6265 25.7421 18.9975L4.40894 15.587Z" fill="black"/>
<path d="M12.5367 40.3207C12.514 40.3207 12.4912 40.3092 12.4856 40.2861L4.00568 19.9266C4 19.9093 4 19.8862 4.01704 19.8689C4.0284 19.8516 4.05112 19.8458 4.07384 19.8516L22.8114 24.0701C22.8398 24.0758 22.8568 24.0989 22.8568 24.1278C22.8568 24.1566 22.8398 24.1797 22.8114 24.1855C18.7958 24.9876 12.6503 40.136 12.5878 40.2918C12.5764 40.3034 12.5594 40.3207 12.5367 40.3207ZM4.15335 19.9843L12.531 40.1129C13.1615 38.5664 18.6424 25.3858 22.5558 24.1278L4.15335 19.9843Z" fill="black"/>
<path d="M9.99782 45.4048C9.96943 45.4048 9.94671 45.3875 9.94103 45.3644L4.28967 24.5894C4.28399 24.5664 4.28967 24.5491 4.30671 24.5317C4.32375 24.5144 4.34647 24.5144 4.3635 24.5202L20.1135 29.4831C20.1362 29.4889 20.1532 29.5177 20.1532 29.5408C20.1532 29.5639 20.1305 29.587 20.1078 29.5927C17.4383 30.1237 10.1228 45.2201 10.0489 45.3702C10.0376 45.3932 10.0205 45.4048 9.99782 45.4048ZM4.43166 24.6645L10.0149 45.1913C10.7816 43.6158 17.1714 30.6199 19.9033 29.5408L4.43166 24.6645Z" fill="black"/>
<path d="M8.01559 50.6678C8.00991 50.6678 8.00991 50.6678 8.00423 50.6678C7.98151 50.662 7.96447 50.6447 7.95879 50.6216L5.13595 29.4369C5.13595 29.4139 5.14163 29.3965 5.15867 29.385C5.17571 29.3735 5.19843 29.3677 5.21547 29.3792L17.9722 35.0866C17.9949 35.0981 18.0063 35.1212 18.0063 35.1443C18.0063 35.1674 17.9836 35.1904 17.9608 35.1962C16.9044 35.4097 11.0259 45.3932 8.06671 50.6447C8.05535 50.6562 8.03831 50.6678 8.01559 50.6678ZM5.26091 29.5177L8.04967 50.4369C8.95843 48.8269 16.1774 36.1138 17.8018 35.1327L5.26091 29.5177Z" fill="black"/>
<path d="M6.61269 56C6.60701 56 6.60133 56 6.59565 56C6.57293 55.9942 6.55589 55.9711 6.55589 55.9423V34.3364C6.55589 34.3133 6.56725 34.296 6.58429 34.2844C6.60133 34.2729 6.62405 34.2729 6.64109 34.2844L16.4046 40.742C16.416 40.7477 16.4273 40.765 16.4273 40.7766C16.433 40.7939 16.4273 40.8054 16.4216 40.8228L6.65813 55.9711C6.65245 55.9885 6.62973 56 6.61269 56ZM6.66949 34.446V55.7461L16.2967 40.8112L6.66949 34.446Z" fill="black"/>
</g>
<defs>
<filter id="filter0_d_1_175" x="0" y="0" width="55" height="64" filterUnits="userSpaceOnUse" color-interpolation-filters="sRGB">
<feFlood flood-opacity="0" result="BackgroundImageFix"/>
<feColorMatrix in="SourceAlpha" type="matrix" values="0 0 0 0 0 0 0 0 0 0 0 0 0 0 0 0 0 0 127 0" result="hardAlpha"/>
<feOffset dy="4"/>
<feGaussianBlur stdDeviation="2"/>
<feComposite in2="hardAlpha" operator="out"/>
<feColorMatrix type="matrix" values="0 0 0 0 0 0 0 0 0 0 0 0 0 0 0 0 0 0 0.25 0"/>
<feBlend mode="normal" in2="BackgroundImageFix" result="effect1_dropShadow_1_175"/>
<feBlend mode="normal" in="SourceGraphic" in2="effect1_dropShadow_1_175" result="shape"/>
</filter>
</defs>
</svg>
