<svg width="72" height="61" viewBox="0 0 72 61" fill="none" xmlns="http://www.w3.org/2000/svg">
<path d="M23.0797 0.0891727C23.0786 0.0949667 23.0786 0.0949704 23.0774 0.100764L0.120888 57.9747C0.10936 58.0025 0.0756688 58.02 0.0476806 58.0085C0.0196923 57.9969 0.00209184 57.9634 0.0147606 57.9298L22.9713 0.0558002C22.9828 0.0279772 23.0165 0.010535 23.0503 0.0232095C23.0725 0.0335904 23.0854 0.0602029 23.0797 0.0891727Z" fill="black"/>
<path d="M21.168 4.91278L6.04401 58.1657C6.03717 58.2004 6.00348 58.2179 5.96966 58.2052C5.93471 58.1983 5.91825 58.159 5.92978 58.1311L21.0526 4.88405C21.0595 4.84928 21.0932 4.83184 21.127 4.84452C21.155 4.85604 21.1737 4.88381 21.168 4.91278Z" fill="black"/>
<path d="M11.9613 58.3555C11.9556 58.3844 11.9266 58.4088 11.8916 58.4019C11.8567 58.3951 11.838 58.3673 11.8437 58.3383L19.1329 9.71808C19.1386 9.68912 19.1676 9.66473 19.2025 9.67162C19.2375 9.6785 19.2562 9.70626 19.2505 9.73523L11.9613 58.3555Z" fill="black"/>
<path d="M17.8833 58.5522C17.8776 58.5812 17.8556 58.6009 17.8253 58.601C17.795 58.601 17.7635 58.5768 17.7645 58.5409L17.227 14.5428C17.228 14.5069 17.2512 14.4814 17.2873 14.4825C17.3176 14.4824 17.3491 14.5067 17.3481 14.5426L17.8856 58.5406C17.8844 58.5464 17.8833 58.5522 17.8833 58.5522Z" fill="black"/>
<path d="M23.7983 58.7536C23.7937 58.7768 23.7775 58.7977 23.7531 58.7989C23.7217 58.8047 23.689 58.7863 23.6831 58.755L15.3119 19.3838C15.3059 19.3526 15.3244 19.3201 15.3558 19.3142C15.3873 19.3084 15.4199 19.3268 15.4259 19.3581L23.797 58.7293C23.8017 58.7362 23.8006 58.742 23.7983 58.7536Z" fill="black"/>
<path d="M29.7203 58.9504C29.7169 58.9677 29.7076 58.984 29.6879 58.9921C29.6611 59.0049 29.6215 58.9911 29.6086 58.9645L13.4038 24.2201C13.3908 24.1935 13.4046 24.1541 13.4314 24.1413C13.4581 24.1285 13.4977 24.1424 13.5107 24.169L29.7155 58.9133C29.719 58.926 29.7226 58.9388 29.7203 58.9504Z" fill="black"/>
<path d="M35.6365 59.146C35.6342 59.1575 35.6249 59.1738 35.618 59.1784C35.5901 59.197 35.554 59.1959 35.5353 59.1682L11.5026 29.0518C11.4838 29.0241 11.4849 28.9882 11.5127 28.9696C11.5406 28.951 11.5767 28.9521 11.5954 28.9798L35.6281 59.0962C35.6375 59.11 35.6399 59.1286 35.6365 59.146Z" fill="black"/>
<path d="M41.5584 59.3427C41.5562 59.3543 41.555 59.3601 41.5469 59.3705C41.5237 59.396 41.4865 59.4008 41.4666 59.3788L9.60141 33.8835C9.5757 33.8604 9.56975 33.8291 9.59407 33.7978C9.61725 33.7723 9.65449 33.7676 9.67437 33.7896L41.5337 59.2837C41.5548 59.2998 41.5619 59.3253 41.5584 59.3427Z" fill="black"/>
<path d="M47.4746 59.5383C47.4735 59.5441 47.4723 59.5499 47.4712 59.5557C47.4538 59.5824 47.4213 59.594 47.3933 59.5825L7.69441 38.7141C7.66756 38.6967 7.65693 38.6585 7.66732 38.6365C7.68467 38.6098 7.71722 38.5982 7.74521 38.6097L47.4441 59.4781C47.4662 59.4885 47.4792 59.5151 47.4746 59.5383Z" fill="black"/>
<path d="M53.3896 59.7397L53.3885 59.7455C53.3769 59.7733 53.3433 59.7907 53.3153 59.7792L5.78856 43.5388C5.76057 43.5273 5.74183 43.4995 5.74753 43.4705L5.74867 43.4648C5.7602 43.4369 5.79389 43.4195 5.82188 43.431L53.3544 59.6726C53.3835 59.6783 53.3953 59.7107 53.3896 59.7397Z" fill="black"/>
<path d="M59.3116 59.9364C59.3048 59.9712 59.2711 59.9886 59.2419 59.9829L3.8827 48.3636C3.85357 48.3578 3.829 48.3289 3.83585 48.2941C3.84269 48.2594 3.87638 48.2419 3.90551 48.2477L59.2647 59.867C59.2939 59.8728 59.3184 59.9017 59.3116 59.9364Z" fill="black"/>
<path d="M65.2277 60.132C65.222 60.161 65.193 60.1854 65.1639 60.1796L1.97684 53.1883C1.94771 53.1826 1.92315 53.1537 1.92302 53.1235C1.91707 53.0923 1.95773 53.0702 1.988 53.0701L65.1751 60.0615C65.21 60.0684 65.2346 60.0973 65.2277 60.132Z" fill="black"/>
<path d="M71.1497 60.3288C71.144 60.3577 71.1162 60.3763 71.0917 60.3775L0.0651578 58.0119C0.0348885 58.012 0.0103219 57.983 0.0113391 57.9471C0.0123563 57.9112 0.0402212 57.8926 0.0704905 57.8926L71.0912 60.2571C71.1215 60.257 71.1519 60.2871 71.1462 60.316C71.1509 60.323 71.1497 60.3288 71.1497 60.3288Z" fill="black"/>
</svg>
